<?xml version="1.0" encoding="utf-8"?>
<!-- Generator: Adobe Illustrator 16.0.0, SVG Export Plug-In . SVG Version: 6.00 Build 0)  -->
<!DOCTYPE svg PUBLIC "-//W3C//DTD SVG 1.1//EN" "http://www.w3.org/Graphics/SVG/1.1/DTD/svg11.dtd">
<svg version="1.1" id="Layer_1" xmlns="http://www.w3.org/2000/svg" xmlns:xlink="http://www.w3.org/1999/xlink" x="0px" y="0px"
	 width="21.729px" height="21.729px" viewBox="0 0 21.729 21.729" enable-background="new 0 0 21.729 21.729" xml:space="preserve">
<g>
	<path fill="#FFFFFF" d="M0.865,21.73c-0.221,0-0.443-0.085-0.612-0.254c-0.337-0.338-0.337-0.885,0-1.223l9.389-9.388L0.253,1.478
		c-0.337-0.338-0.337-0.886,0-1.224c0.338-0.338,0.886-0.338,1.224,0l10.611,10.611L1.477,21.477
		C1.308,21.646,1.086,21.73,0.865,21.73z"/>
</g>
<g>
	<path fill="#FFFFFF" d="M20.864,21.729c-0.222,0-0.442-0.085-0.611-0.254L9.642,10.865L20.253,0.253
		c0.338-0.338,0.885-0.338,1.223,0s0.338,0.886,0,1.224l-9.388,9.388l9.388,9.388c0.338,0.338,0.338,0.885,0,1.223
		C21.307,21.645,21.086,21.729,20.864,21.729z"/>
</g>
</svg>
