<?xml version="1.0" encoding="utf-8"?>
<!-- Generator: Adobe Illustrator 19.2.1, SVG Export Plug-In . SVG Version: 6.00 Build 0)  -->
<svg version="1.1" id="Layer_1" xmlns="http://www.w3.org/2000/svg" xmlns:xlink="http://www.w3.org/1999/xlink" x="0px" y="0px"
	 viewBox="0 0 25 25" style="enable-background:new 0 0 25 25;" xml:space="preserve">
<style type="text/css">
	.st0{fill:#2575D7;}
	.st1{enable-background:new    ;}
	.st2{fill:#FFFFFF;}
</style>
<circle class="st0" cx="12.5" cy="12.5" r="12.5"/>
<g class="st1">
	<path class="st2" d="M10.9,19.3v-6.5H9.2v-2.2l1.6,0V9.3c0-0.5,0-0.9,0.1-1.2c0.1-0.4,0.2-0.7,0.4-0.9s0.5-0.4,0.8-0.6
		s0.8-0.2,1.3-0.2h1.8v2.2h-1.1c-0.2,0-0.4,0-0.5,0.1s-0.2,0.1-0.3,0.2S13.3,9,13.3,9.1c0,0.1,0,0.2,0,0.4v1.1h2l-0.2,2.2h-1.8v6.5
		H10.9z"/>
</g>
</svg>
