<?xml version="1.0" encoding="utf-8"?>
<!-- Generator: Adobe Illustrator 16.0.0, SVG Export Plug-In . SVG Version: 6.00 Build 0)  -->
<!DOCTYPE svg PUBLIC "-//W3C//DTD SVG 1.1//EN" "http://www.w3.org/Graphics/SVG/1.1/DTD/svg11.dtd">
<svg version="1.1" id="Layer_1" xmlns="http://www.w3.org/2000/svg" xmlns:xlink="http://www.w3.org/1999/xlink" x="0px" y="0px"
	 width="235.752px" height="150.51px" viewBox="0 0 235.752 150.51" enable-background="new 0 0 235.752 150.51"
	 xml:space="preserve">
<path d="M76.418,56.263h5.749c3.664,0,5.376,1.404,5.376,4.98c0,3.576-1.777,5.025-5.42,5.025h-4.102v5.925h-1.603V56.263z
	 M82.167,64.798c2.238,0,3.774-0.373,3.774-3.511c0-3.137-1.601-3.554-3.818-3.554h-4.102v7.065H82.167z"/>
<path d="M90.812,64.228c0-6.759,3.006-8.25,6.714-8.25c3.709,0,6.671,1.448,6.671,8.206c0,6.757-3.006,8.25-6.715,8.25
	S90.812,70.985,90.812,64.228 M102.484,64.754v-1.053c0-5.091-2.106-6.21-5.003-6.21c-2.895,0-4.958,1.076-4.958,6.166v1.053
	c0,5.091,2.107,6.21,5.002,6.21C100.421,70.92,102.484,69.845,102.484,64.754"/>
<polygon points="108.211,56.263 109.813,56.263 109.813,70.701 118.524,70.701 118.524,72.193 108.211,72.193 "/>
<polygon points="123.699,65.72 117.775,56.263 119.552,56.263 124.554,64.249 129.58,56.263 131.247,56.263 125.3,65.72 
	125.3,72.193 123.699,72.193 "/>
<path d="M133.133,64.228c0-7.373,3.007-8.25,6.474-8.25c2.084,0,3.752,0.351,4.388,0.57l-0.351,1.426
	c-0.681-0.153-2.369-0.482-4.082-0.482c-3.115,0-4.717,1.14-4.717,6.166v1.052c0,4.915,1.668,6.21,4.783,6.21
	c1.689,0,3.6-0.373,4.036-0.505l0.353,1.426c-0.988,0.33-2.545,0.593-4.434,0.593C136.117,72.434,133.133,71.6,133.133,64.228"/>
<polygon points="148.031,56.263 149.632,56.263 149.632,70.701 158.343,70.701 158.343,72.193 148.031,72.193 "/>
<rect x="162.336" y="56.263" width="1.624" height="15.93"/>
<polygon points="169.094,56.263 170.608,56.263 179.341,69.34 179.341,56.263 180.876,56.263 180.876,72.193 179.429,72.193 
	170.63,59.028 170.63,72.193 169.094,72.193 "/>
<rect x="186.054" y="56.263" width="1.625" height="15.93"/>
<path d="M204.267,75.287h-1.756l-1.711-3.094c-0.637,0.153-1.339,0.197-2.064,0.197c-3.707,0-6.67-1.404-6.67-8.162
	c0-6.759,3.006-8.25,6.715-8.25s6.671,1.448,6.671,8.206c0,4.366-1.251,6.517-3.159,7.504L204.267,75.287z M198.21,67.475h1.8
	l1.558,2.875c1.339-0.769,2.172-2.37,2.172-5.596v-1.052c0-5.091-2.105-6.21-5.004-6.21c-2.895,0-4.957,1.075-4.957,6.166v1.052
	c0,5.091,2.106,6.21,5.002,6.21c0.439,0,0.878-0.022,1.273-0.088L198.21,67.475z"/>
<path d="M209.466,66.531V56.262h1.623v10.093c0,3.446,1.118,4.498,4.521,4.498c3.4,0,4.498-0.899,4.498-4.454V56.262h1.557v10.225
	c0,4.739-2.128,5.925-6.1,5.925C211.616,72.412,209.466,71.337,209.466,66.531"/>
<polygon points="226.405,56.263 235.752,56.263 235.752,57.755 228.007,57.755 228.007,63.021 233.931,63.021 233.931,64.513 
	228.007,64.513 228.007,70.701 235.752,70.701 235.752,72.193 226.405,72.193 "/>
<path d="M76.418,81.261h6.822c5.405,0,8.244,1.27,8.244,9.113c0,7.846-2.839,9.113-8.244,9.113h-6.822V81.261z M83.216,96.574
	c3.188,0,4.407-1.419,4.407-5.603v-1.195c0-4.209-1.219-5.528-4.407-5.528h-3.138v12.326H83.216z"/>
<path d="M98.179,93.063V81.26h3.686v11.556c0,2.963,1.195,3.61,4.059,3.61c2.863,0,4.033-0.498,4.033-3.562V81.26h3.512v11.755
	c0,5.379-2.416,6.723-7.596,6.723C100.694,99.737,98.179,98.519,98.179,93.063"/>
<polygon points="126.39,81.26 130.048,81.26 130.048,96.351 138.94,96.351 138.94,99.489 126.39,99.489 "/>
<path d="M147.177,99.487h-3.658l7.07-18.354h3.362l7.071,18.354h-3.859l-1.221-3.287h-7.545L147.177,99.487z M152.185,86.065
	c0,0-2.664,7.172-2.689,7.172h5.354L152.185,86.065z"/>
<path d="M165.403,90.374c0-7.895,3.188-9.389,8.168-9.389c2.986,0,4.357,0.373,5.205,0.548l-0.623,3.112
	c-1.346-0.225-2.689-0.447-4.631-0.447c-3.188,0-4.283,1.295-4.283,5.453v1.345c0,4.06,1.119,5.604,4.332,5.604
	c2.391,0,4.06-0.426,4.605-0.524l0.6,3.063c-0.973,0.273-2.342,0.598-5.254,0.598C168.491,99.737,165.403,98.269,165.403,90.374"/>
<path d="M91.861,12.586c-0.055-0.188-0.244-0.305-0.437-0.27c-18.877,3.477-32.533,10.99-40.945,16.376
	c-2.354,1.508-4.874,3.341-5.794,3.904c-1.434,0.876-2.813,1.875-5.268,2.038c-1.881,0.125-3.769-0.583-5.277-1.236
	c-7.317-3.563-14.989-10.914-21.086-17.811C9.498,11.57,6.468,7.713,4.329,4.861c-1.07-1.425-1.917-2.6-2.497-3.417
	C1.253,0.627,0.944,0.169,0.943,0.168c-0.111-0.163-0.327-0.216-0.5-0.121C0.269,0.141,0.196,0.351,0.274,0.533
	c10.829,25.378,26.948,38.946,32.094,42.814c-1.613,4.553-2.811,10.58-2.812,18.088c0,4.132,0.367,8.713,1.222,13.731
	c-3.264-0.757-6.743-1.418-10.459-1.954c-2.6-0.375-5.143-0.675-7.626-0.906c-0.007-0.001-1.287-0.122-2.837-0.122
	c-1.51,0.004-3.256,0.103-4.42,0.589c-0.664,0.282-1.533,0.839-2.25,1.748c-0.717,0.906-1.269,2.173-1.268,3.814
	c0,1.104,0.247,2.374,0.844,3.822c15.066,36.599,36.586,54.691,36.617,54.718c0.156,0.132,0.388,0.117,0.527-0.033
	c0.139-0.149,0.135-0.382-0.008-0.526c0,0-0.069-0.069-0.204-0.213c-2.026-2.149-18.627-20.478-25.561-50.416
	c-0.189-0.819-0.598-2.319-0.917-3.777c8.254,2.131,15.117,4.545,20.936,7.142c0.67,2.154,1.417,4.363,2.261,6.64
	c13.788,37.115,36.6,54.713,36.635,54.74c0.157,0.12,0.382,0.103,0.516-0.046c0.134-0.146,0.133-0.372-0.002-0.518
	c0,0-0.066-0.071-0.195-0.216c-1.939-2.174-17.856-20.674-25.58-50.433c-3.178-12.239-4.399-22.353-4.399-30.653
	c0-13.242,3.105-21.878,6.339-27.225c4.506-7.465,14.994-14.581,24.347-19.777c4.677-2.602,9.07-4.732,12.293-6.211
	c1.611-0.74,2.93-1.317,3.845-1.708c0.915-0.392,1.423-0.597,1.423-0.597C91.819,12.974,91.916,12.774,91.861,12.586"/>
<path d="M38.378,31.204c3.391,0.461,6.681-3.153,7.35-8.071c0.668-4.918-1.538-9.279-4.929-9.74
	c-3.39-0.461-6.681,3.153-7.349,8.071C32.781,26.382,34.988,30.743,38.378,31.204"/>
</svg>
