<?xml version="1.0" encoding="utf-8"?>
<!-- Generator: Adobe Illustrator 19.2.1, SVG Export Plug-In . SVG Version: 6.00 Build 0)  -->
<svg version="1.1" id="Layer_1" xmlns="http://www.w3.org/2000/svg" xmlns:xlink="http://www.w3.org/1999/xlink" x="0px" y="0px"
	 viewBox="0 0 243.8 125.2" style="enable-background:new 0 0 243.8 125.2;" xml:space="preserve">
<style type="text/css">
	.st0{fill:#D7DE3B;}
	.st1{fill:#231F20;}
	.st2{fill:none;stroke:#231F20;stroke-width:1.04;stroke-miterlimit:10;}
	.st3{fill:#FFFFFF;}
</style>
<title>Vector Smart Object</title>
<path class="st0" d="M61.3,12.3c-3.2,0.2-7.5,0.3-11.7,0.4s-8,0-10.5,0c-0.9-1-1.1-2.4-0.5-3.6c0.1-0.3,0.5-0.9,1-1.6
	c0.3-0.8,0.5-1.7,0.4-2.5c-0.1-3.2-2.8-5-5.9-5h-0.5c-3.1,0.1-5.9,2-5.8,5.3c0,0.9,0.2,1.7,0.5,2.5c0.5,0.7,0.9,1.3,1,1.5
	c0.5,0.9,0.5,2.1,0,3c-4.3-0.6-8.5-1-12.9-1.1C8.8,10.8,0.4,11,0.9,12.9c0.4,2.6,0.7,5.2,0.8,7.8C2,25.9,2.2,31.7,2.4,32.7
	c0.3,1.7,1.4,2.6,4.2,1.2c0.3-0.1,0.8-0.6,1.5-1c0.8-0.4,1.6-0.6,2.4-0.5c3.1,0,5,2.7,5.1,5.9c0,0.1,0,0.1,0,0.2s0,0.1,0,0.2
	c0,3.2-1.8,5.9-5,6c-0.8,0-1.7-0.1-2.4-0.5c-0.7-0.4-1.2-0.8-1.5-1c-1.5-0.8-3.4-0.2-4.2,1.3c0,0,0,0,0,0c-0.3,1.3-0.5,2.6-0.6,3.9
	C1.3,53.8,0.7,63.7,0.3,74c-0.2,6.8-0.5,13.6-0.2,19.5c0.5,9.1,0.8,15.2,1,15.7c0.8,0,10.1-1.3,14.5-2l2.3-0.3
	c1.5-0.8,2.1-2.7,1.3-4.2c0,0,0,0,0,0c-0.1-0.3-0.6-0.8-1-1.5c-0.4-0.8-0.5-1.6-0.5-2.4c0-3.2,2.7-5,5.9-5.1h0.4
	c3.2,0,5.9,1.8,5.9,5c0,0.8-0.1,1.7-0.5,2.4c-0.4,0.7-0.9,1.2-1,1.5c-0.8,1.4-0.3,3.1,1,4c1.4,0.1,3,0.1,4.7,0.2
	c4.7,0.2,10.4,0.2,15.5,0.1c5.4-0.2,10-0.6,11.9-1.6c0.7-1.6,0.4-7.5,0-13.2c-0.4-5.4-1-10.7-0.9-11.9c0-0.6,0.1-1.5,0.2-2.6
	c0.9-1.1,2.5-1.4,3.8-0.7c0.3,0.1,0.8,0.6,1.5,1c0.8,0.4,1.6,0.5,2.4,0.5c3,0,4.8-2.5,5-5.4c0-0.2,0-0.3,0-0.5s0-0.1,0-0.2
	s0-0.1,0-0.2c0-3.2-1.9-5.9-5-5.9c-0.8,0-1.7,0.1-2.4,0.5c-0.7,0.4-1.2,0.9-1.5,1c-1.3,0.7-2.9,0.4-3.8-0.7
	c-0.1-0.2-0.1-0.5-0.2-0.7c0.4-1.5,0.6-9,0.7-17.9c0.1-9.3,0.4-20.1,0.4-27.5C61.8,15.9,61.4,12.3,61.3,12.3"/>
<path class="st1" d="M39.8,32.7c-0.6,0.5,0.8-3.7,1.3-4.9c0.6-1.5,1.2-3.1,1.6-4.7c0.2-0.9,0.3-1.8,0.2-2.6c0-0.4-0.2-0.9-0.5-1.2
	c-0.5-0.5-4,1-4.6,4s0.5,6.6,0.2,7.7c-0.1,0.6-0.4,1.2-0.8,1.7c-14.8-7.2-25.9-28.2-25-25.8C16.3,17.7,28.7,32,35.6,34.4
	c-0.3,0.2-0.6,0.5-0.9,0.8c-2.3,3.3-2.5,13.5-2.6,15.3c-0.5,6.7,3.8,13.1,4.1,17.2c-2.5,0-21.8-9.2-26.2-3.4
	c-4.9,6.5,17,49.5,24.4,55.9c0.6,0.5-17.9-24.9-21.3-53.3c0-0.4,0.4,0.2,4.2,1.8c5.5,2.4,9,2.9,12.5,3.9c2.2,0.8,4.5,1.2,6.8,1.3
	c0.4,24,23.1,50.6,23.1,50.6c1.2,1.1-19-31.5-18.6-50.7c0.1-2.9,5.9-4.9,1.6-9.9c-1.8-2.1-4.6-3.9-5.2-8.2s2.1-20,7-24.2
	c7.7-6.8,25.3-12.7,26.2-12.8S47.4,25.9,39.8,32.7"/>
<path class="st2" d="M39.8,32.7c-0.6,0.5,0.8-3.7,1.3-4.9c0.6-1.5,1.2-3.1,1.6-4.7c0.2-0.9,0.3-1.8,0.2-2.6c0-0.4-0.2-0.9-0.5-1.2
	c-0.5-0.5-4,1-4.6,4s0.5,6.6,0.2,7.7c-0.1,0.6-0.4,1.2-0.8,1.7c-14.8-7.2-25.9-28.2-25-25.8C16.3,17.7,28.7,32,35.6,34.4
	c-0.3,0.2-0.6,0.5-0.9,0.8c-2.3,3.3-2.5,13.5-2.6,15.3c-0.5,6.7,3.8,13.1,4.1,17.2c-2.5,0-21.8-9.2-26.2-3.4
	c-4.9,6.5,17,49.5,24.4,55.9c0.6,0.5-17.9-24.9-21.3-53.3c0-0.4,0.4,0.2,4.2,1.8c5.5,2.4,9,2.9,12.5,3.9c2.2,0.8,4.5,1.2,6.8,1.3
	c0.4,24,23.1,50.6,23.1,50.6c1.2,1.1-19-31.5-18.6-50.7c0.1-2.9,5.9-4.9,1.6-9.9c-1.8-2.1-4.6-3.9-5.2-8.2s2.1-20,7-24.2
	c7.7-6.8,25.3-12.7,26.2-12.8S47.3,25.9,39.8,32.7z"/>
<path class="st3" d="M84.5,38.6h5.8c3.7,0,5.4,1.4,5.4,5s-1.8,5-5.4,5h-4.1v5.9h-1.6V38.6z M90.2,47.1c2.2,0,3.8-0.4,3.8-3.5
	s-1.6-3.5-3.8-3.5h-4.1v7.1L90.2,47.1L90.2,47.1z"/>
<path class="st3" d="M98.9,46.6c0-6.8,3-8.2,6.7-8.2s6.7,1.5,6.7,8.2s-3,8.2-6.7,8.2S98.9,53.3,98.9,46.6 M110.6,47.1V46
	c0-5.1-2.1-6.2-5-6.2s-5,1.1-5,6.2v1c0,5.1,2.1,6.2,5,6.2S110.6,52.1,110.6,47.1"/>
<polygon class="st3" points="116.3,38.6 117.9,38.6 117.9,53 126.6,53 126.6,54.5 116.3,54.5 "/>
<polygon class="st3" points="131.8,48.1 125.9,38.6 127.6,38.6 132.6,46.6 137.7,38.6 139.3,38.6 133.4,48.1 133.4,54.5 131.8,54.5 
	"/>
<path class="st3" d="M141.2,46.6c0-7.4,3-8.2,6.5-8.2c1.5,0,3,0.2,4.4,0.6l-0.4,1.4c-1.3-0.3-2.7-0.5-4.1-0.5
	c-3.1,0-4.7,1.1-4.7,6.2v1c0,4.9,1.7,6.2,4.8,6.2c1.3,0,2.7-0.2,4-0.5l0.4,1.4c-1.4,0.4-2.9,0.6-4.4,0.6
	C144.2,54.7,141.2,53.9,141.2,46.6"/>
<polygon class="st3" points="156.1,38.6 157.7,38.6 157.7,53 166.4,53 166.4,54.5 156.1,54.5 "/>
<rect x="170.4" y="38.6" class="st3" width="1.6" height="15.9"/>
<polygon class="st3" points="177.2,38.6 178.7,38.6 187.4,51.7 187.4,38.6 189,38.6 189,54.5 187.5,54.5 178.7,41.4 178.7,54.5 
	177.2,54.5 "/>
<rect x="194.1" y="38.6" class="st3" width="1.6" height="15.9"/>
<path class="st3" d="M212.4,57.6h-1.8l-1.7-3.1c-0.7,0.1-1.4,0.2-2.1,0.2c-3.7,0-6.7-1.4-6.7-8.2s3-8.2,6.7-8.2s6.7,1.5,6.7,8.2
	c0,4.4-1.2,6.5-3.2,7.5L212.4,57.6z M206.3,49.8h1.8l1.6,2.9c1.3-0.8,2.2-2.4,2.2-5.6V46c0-5.1-2.1-6.2-5-6.2s-5,1.1-5,6.2v1
	c0,5.1,2.1,6.2,5,6.2c0.4,0,0.9,0,1.3-0.1L206.3,49.8z"/>
<path class="st3" d="M217.6,48.9V38.6h1.6v10.1c0,3.5,1.1,4.5,4.5,4.5s4.5-0.9,4.5-4.5V38.6h1.6v10.2c0,4.7-2.1,5.9-6.1,5.9
	S217.5,53.7,217.6,48.9"/>
<polygon class="st3" points="234.5,38.6 243.8,38.6 243.8,40.1 236.1,40.1 236.1,45.4 242,45.4 242,46.8 236.1,46.8 236.1,53 
	243.8,53 243.8,54.5 234.5,54.5 "/>
<path class="st3" d="M84.4,63.6h6.8c5.4,0,8.2,1.3,8.2,9.1s-2.8,9.1-8.2,9.1h-6.8V63.6z M91.2,78.9c3.2,0,4.4-1.4,4.4-5.6v-1.2
	c0-4.2-1.2-5.5-4.4-5.5H88v12.3L91.2,78.9L91.2,78.9z"/>
<path class="st3" d="M106.1,75.4V63.6h3.7v11.6c0,3,1.2,3.6,4.1,3.6s4-0.5,4-3.6V63.6h3.5v11.8c0,5.4-2.4,6.7-7.6,6.7
	S106.1,80.8,106.1,75.4"/>
<polygon class="st3" points="134.3,63.6 138,63.6 138,78.7 146.9,78.7 146.9,81.8 134.3,81.8 "/>
<path class="st3" d="M155.1,81.8h-3.7l7.1-18.3h3.4l7.1,18.3h-3.9l-1.2-3.3h-7.6L155.1,81.8z M160.1,68.4c0,0-2.7,7.2-2.7,7.2h5.4
	L160.1,68.4z"/>
<path class="st3" d="M173.3,72.7c0-7.9,3.2-9.4,8.2-9.4c1.7,0,3.5,0.2,5.2,0.5l-0.6,3.1c-1.5-0.3-3.1-0.4-4.6-0.4
	c-3.2,0-4.3,1.3-4.3,5.4v1.3c0,4.1,1.1,5.6,4.3,5.6c1.6,0,3.1-0.2,4.6-0.5l0.6,3.1c-1.7,0.5-3.5,0.7-5.2,0.6
	C176.5,82.1,173.4,80.6,173.3,72.7"/>
</svg>
