<?xml version="1.0" encoding="utf-8"?>
<!-- Generator: Adobe Illustrator 19.2.1, SVG Export Plug-In . SVG Version: 6.00 Build 0)  -->
<svg version="1.1" id="Layer_1" xmlns="http://www.w3.org/2000/svg" xmlns:xlink="http://www.w3.org/1999/xlink" x="0px" y="0px"
	 viewBox="0 0 76.2 15.7" style="enable-background:new 0 0 76.2 15.7;" xml:space="preserve">
<style type="text/css">
	.st0{fill:#FFFFFF;}
</style>
<g>
	<path class="st0" d="M5.8,15.7c-3.7,0-5.8-1.8-5.8-4.6v-0.7h3.3v0.4c0,1.5,1,2.1,2.5,2.1s2.1-0.7,2.1-1.7c0-2.6-7.5-1.9-7.5-6.7
		c0-2.5,2-4.5,5.4-4.5c3.5,0,5.5,1.9,5.5,4.5v0.7H8V4.8c0-1.2-0.8-2-2.3-2c-1.3,0-2,0.6-2,1.6c0,2.5,7.6,1.8,7.6,6.6
		C11.3,13.6,9.4,15.7,5.8,15.7z"/>
	<path class="st0" d="M19,15.7c-3.6,0-5.8-2.1-5.8-4.9V0.4h3.6v10.3c0,1.3,0.8,2.1,2.3,2.1s2.3-0.8,2.3-2.1V0.4h3.4v10.4
		C24.8,13.6,22.7,15.7,19,15.7z"/>
	<path class="st0" d="M33.2,15.3h-5.9V0.4h5.9c4,0,5.8,2.3,5.8,5.3v4.3C39,13.1,37.2,15.3,33.2,15.3z M35.4,5.6
		c0-1.6-0.8-2.4-2.5-2.4h-2.1v9.1H33c1.6,0,2.5-0.8,2.5-2.4V5.6z"/>
	<path class="st0" d="M46.9,15.7c-3.7,0-6-2.3-6-5.4V5.4c0-3.1,2.3-5.4,6-5.4c3.7,0,6,2.3,6,5.4v4.9C52.9,13.4,50.6,15.7,46.9,15.7z
		 M49.3,5.2c0-1.4-0.8-2.4-2.4-2.4c-1.6,0-2.4,1-2.4,2.4v5.2c0,1.3,0.8,2.4,2.4,2.4c1.6,0,2.4-1,2.4-2.4V5.2z"/>
</g>
<rect x="57.4" y="6.8" class="st0" width="18.8" height="2.2"/>
</svg>
