<?xml version="1.0" encoding="utf-8"?>
<!-- Generator: Adobe Illustrator 16.0.4, SVG Export Plug-In . SVG Version: 6.00 Build 0)  -->
<!DOCTYPE svg PUBLIC "-//W3C//DTD SVG 1.1//EN" "http://www.w3.org/Graphics/SVG/1.1/DTD/svg11.dtd">
<svg version="1.1" id="Calque_1" xmlns="http://www.w3.org/2000/svg" xmlns:xlink="http://www.w3.org/1999/xlink" x="0px" y="0px"
	 width="41.859px" height="58px" viewBox="0 0 41.859 58" enable-background="new 0 0 41.859 58" xml:space="preserve">
<g>
	<path fill="#95D600" d="M20.897,0.757C9.175,0.757,0,10.261,0,21.984C0,33.708,20.897,58,20.897,58s20.954-24.292,20.954-36.016
		C41.852,10.261,32.622,0.757,20.897,0.757z"/>
</g>
<g>
	<path d="M37.324,4.195c-0.019-0.062-0.082-0.102-0.146-0.09C30.886,5.264,26.336,7.768,23.53,9.563
		c-0.779,0.503-1.617,1.114-1.923,1.301c-0.477,0.292-0.938,0.625-1.756,0.679c-0.626,0.042-1.255-0.194-1.758-0.413
		c-2.438-1.187-4.996-3.638-7.028-5.936C9.88,3.856,8.87,2.571,8.157,1.62C7.801,1.145,7.518,0.754,7.325,0.481
		C7.132,0.209,7.029,0.057,7.029,0.056C6.991,0.001,6.92-0.016,6.861,0.016C6.803,0.047,6.78,0.118,6.806,0.178
		c3.608,8.458,8.981,12.98,10.697,14.27c-0.538,1.518-0.938,3.526-0.938,6.029c0,1.376,0.123,2.903,0.407,4.576
		c-1.088-0.252-2.248-0.473-3.486-0.651c-0.865-0.125-1.713-0.225-2.542-0.301c-0.002-0.001-0.429-0.042-0.945-0.042
		c-0.503,0.002-1.085,0.035-1.474,0.196c-0.221,0.094-0.511,0.28-0.75,0.583c-0.238,0.302-0.423,0.724-0.423,1.271
		c0,0.368,0.083,0.792,0.282,1.274C12.656,39.568,19.829,45.6,19.84,45.607c0.052,0.043,0.129,0.039,0.175-0.012
		c0.047-0.049,0.045-0.127-0.003-0.174c0,0-0.022-0.023-0.067-0.07c-0.675-0.717-6.209-6.826-8.52-16.792
		c-0.063-0.272-0.199-0.773-0.306-1.258c2.751,0.709,5.038,1.514,6.978,2.378c0.223,0.717,0.473,1.451,0.754,2.211
		c4.589,12.361,12.192,18.229,12.203,18.236c0.052,0.039,0.127,0.033,0.172-0.018c0.045-0.049,0.044-0.123,0-0.172
		c0,0-0.023-0.023-0.064-0.07c-0.648-0.727-5.952-6.891-8.522-16.805c-1.057-4.072-1.463-7.442-1.463-10.209
		c0-4.414,1.031-7.292,2.106-9.074c1.5-2.488,4.995-4.859,8.112-6.592c1.561-0.866,3.022-1.577,4.099-2.07
		c0.536-0.246,0.975-0.439,1.281-0.569c0.305-0.131,0.475-0.199,0.475-0.199C37.309,4.325,37.342,4.259,37.324,4.195"/>
	<path d="M19.506,10.401c1.131,0.153,2.227-1.051,2.448-2.69s-0.512-3.092-1.642-3.247c-1.13-0.153-2.226,1.051-2.449,2.69
		C17.64,8.793,18.376,10.247,19.506,10.401"/>
</g>
</svg>
