<?xml version="1.0" standalone="no"?>
<!DOCTYPE svg PUBLIC "-//W3C//DTD SVG 1.1//EN" "http://www.w3.org/Graphics/SVG/1.1/DTD/svg11.dtd" >
<svg xmlns="http://www.w3.org/2000/svg">
<metadata>Generated by IcoMoon</metadata>
<defs>
<font id="Fabricones" horiz-adv-x="1024">
<font-face units-per-em="1024" ascent="798.72" descent="-225.28" />
<missing-glyph horiz-adv-x="1024" />
<glyph unicode="&#x20;" d="" horiz-adv-x="512" />
<glyph unicode="&#x21;" d="M485.824-223.046l137.542 194.061-137.542 40.787zM0 233.421l390.707-122.131 481.197 421.658-372.883-454.189 417.83-133.107 215.149 853.395z" horiz-adv-x="1126" />
<glyph unicode="&#x23;" d="M896 608h-768v-640h768v640zM1024 736v0-896h-1024v896h1024zM832 32h-640v128l192 320 263.002-320 184.998 128v-64zM640 448c0-53.019 42.981-96 96-96s96 42.981 96 96c0 53.019-42.981 96-96 96-53.019 0-96-42.981-96-96z" />
<glyph unicode="&#x24;" d="M304 192c0-114.874 93.126-208 208-208s208 93.126 208 208-93.126 208-208 208-208-93.126-208-208zM960 544h-224c-16 64-32 128-96 128h-256c-64 0-80-64-96-128h-224c-35.2 0-64-28.8-64-64v-576c0-35.2 28.8-64 64-64h896c35.2 0 64 28.8 64 64v576c0 35.2-28.8 64-64 64zM512-92c-156.851 0-284 127.149-284 284s127.149 284 284 284c156.851 0 284-127.149 284-284 0-156.851-127.149-284-284-284zM960 352h-128v64h128v-64z" />
<glyph unicode="&#x26;" d="M0 672v-768h1024v768h-1024zM192-32h-128v128h128v-128zM192 224h-128v128h128v-128zM192 480h-128v128h128v-128zM768-32h-512v640h512v-640zM960-32h-128v128h128v-128zM960 224h-128v128h128v-128zM960 480h-128v128h128v-128zM384 480v-384l256 192z" />
<glyph unicode="&#x27;" d="M384 512c0-88.366 71.634-160 160-160s160 71.634 160 160c0 88.366-71.634 160-160 160-88.366 0-160-71.634-160-160zM0 512c0-88.366 71.634-160 160-160s160 71.634 160 160c0 88.366-71.634 160-160 160-88.366 0-160-71.634-160-160zM768 192v96c0 35.2-28.8 64-64 64h-640c-35.2 0-64-28.8-64-64v-320c0-35.2 28.8-64 64-64h640c35.2 0 64 28.8 64 64v96l256-160v448l-256-160zM640 32h-512v192h512v-192z" />
<glyph unicode="&#x28;" d="M927.814 800h-288.563c-52.909 0-126.797-30.605-164.205-68.013l-446.989-446.989c-37.408-37.408-37.408-98.624 0-136.032l344.909-344.909c37.408-37.408 98.624-37.408 136.032 0l446.989 446.989c37.408 37.408 68.013 111.302 68.013 164.205v288.563c0 52.902-43.283 96.186-96.186 96.186zM800 480c-53.018 0-96 42.982-96 96s42.982 96 96 96 96-42.982 96-96-42.982-96-96-96z" />
<glyph unicode="&#x29;" d="M576.237 510.733l242.707 81.427 203.584-606.784-242.707-81.427zM0-96h256v704h-256v-704zM64 480h128v-64h-128v64zM320-96h256v704h-256v-704zM384 480h128v-64h-128v64z" />
<glyph unicode="&#x2c;" d="M704 160c-64-64-64-128-128-128s-128 64-192 128-128 128-128 192 64 64 128 128-128 256-192 256-192-192-192-192c0-128 131.501-387.501 256-512s384-256 512-256c0 0 192 128 192 192s-192 256-256 192z" />
<glyph unicode="&#x2d;" d="M898.362 736h-770.362v-128h-93.638c-17.6 0-34.362-12.525-34.362-30.125v-64c0-17.606 16.762-33.875 34.362-33.875h93.638v-64h-93.638c-17.6 0-34.362-12.531-34.362-30.125v-64c0-17.6 16.762-33.875 34.362-33.875h93.638v-64h-93.638c-17.6 0-34.362-12.531-34.362-30.131v-64c0-17.594 16.762-33.869 34.362-33.869h93.638v-64h-93.638c-17.6 0-34.362-12.531-34.362-30.131v-64c0-17.594 16.762-33.869 34.362-33.869h93.638v-128h770.362c35.347 0 61.638 30.528 61.638 65.875v832c0 35.341-26.291 62.125-61.638 62.125zM320-160h-128v64h34.362c17.6 0 29.638 16.269 29.638 33.875v64c0 17.6-12.045 30.125-29.638 30.125h-34.362v64h34.362c17.6 0 29.638 16.269 29.638 33.875v64c0 17.6-12.045 30.125-29.638 30.125h-34.362v64h34.362c17.6 0 29.638 16.269 29.638 33.875v64c0 17.6-12.045 30.125-29.638 30.125h-34.362v64h34.362c17.6 0 29.638 16.269 29.638 33.875v64c0 17.6-12.038 30.125-29.638 30.125h-34.362v64h128v-832z" />
<glyph unicode="&#x2f;" d="M576 736c247.424 0 448-200.576 448-448s-200.576-448-448-448v96c94.022 0 182.419 36.614 248.902 103.098 66.483 66.483 103.098 154.88 103.098 248.902 0 94.022-36.614 182.419-103.098 248.902-66.483 66.483-154.88 103.098-248.902 103.098-94.022 0-182.419-36.614-248.902-103.098-51.142-51.136-84.582-115.245-97.306-184.902h186.208l-224-256-224 256h164.57c31.059 217.101 217.741 384 443.43 384zM768 352v-128h-256v320h128v-192z" />
<glyph unicode="&#x30;" d="M658.746 50.746l-210.746 210.746v282.509h128v-229.491l173.254-173.254zM512 800c-282.771 0-512-229.229-512-512s229.229-512 512-512 512 229.229 512 512-229.229 512-512 512zM512-96c-212.077 0-384 171.923-384 384s171.923 384 384 384c212.077 0 384-171.923 384-384 0-212.077-171.923-384-384-384z" />
<glyph unicode="&#x31;" d="M576 250.509l109.254-109.254-90.509-90.509-146.746 146.746v218.509h128zM832 736c106.042 0 192-85.958 192-192 0-64.986-32.288-122.419-81.69-157.158-46.592 123.046-144.422 220.877-267.469 267.469 34.739 49.402 92.179 81.69 157.158 81.69zM349.158 654.31c-123.046-46.592-220.877-144.422-267.469-267.469-49.402 34.739-81.69 92.173-81.69 157.158 0 106.042 85.958 192 192 192 64.986 0 122.419-32.288 157.158-81.69zM512 608c-212.077 0-384-171.923-384-384 0-92.672 32.832-177.677 87.494-244.019l-23.494-203.981h64l63.994 115.386c56.48-32.678 122.054-51.386 192.006-51.386 69.946 0 135.52 18.707 192.006 51.386l-0.006-0.006 64-115.379h64l-23.501 203.968c54.669 66.349 87.501 151.354 87.501 244.032 0 212.077-171.923 384-384 384zM512-32c-141.382 0-256 114.618-256 256s114.618 256 256 256 256-114.618 256-256-114.618-256-256-256z" />
<glyph unicode="&#x32;" d="M512 224l256 256h-192v256h-128v-256h-192zM744.723 328.73l-71.738-71.744 260.083-96.986-421.069-157.018-421.069 157.018 260.083 96.986-71.744 71.744-279.27-104.73v-256l512-192 512 192v256z" />
<glyph unicode="&#x33;" d="M448 224h128v256h192l-256 256-256-256h192zM640 368v-98.714l293.069-109.286-421.069-157.018-421.069 157.018 293.069 109.286v98.714l-384-144v-256l512-192 512 192v256z" />
<glyph unicode="&#x34;" d="M512 736c282.771 0 512-186.253 512-416 0-229.754-229.229-416-512-416-27.155 0-53.811 1.734-79.821 5.043-109.984-109.978-241.254-129.696-368.179-132.595v26.918c68.538 33.574 128 94.739 128 164.634 0 9.754-0.755 19.328-2.163 28.698-115.795 76.262-189.837 192.755-189.837 323.302 0 229.747 229.229 416 512 416z" />
<glyph unicode="&#x35;" d="M1088-101.165c0-45.504 26.029-84.909 64-104.186v-15.936c-10.624-1.453-21.472-2.227-32.499-2.227-68.006 0-129.35 28.531-172.723 74.266-26.221-6.982-54.003-10.752-82.778-10.752-159.059 0-288 114.618-288 256 0 141.382 128.941 256 288 256 159.059 0 288-114.618 288-256 0-55.347-19.763-106.592-53.357-148.467-6.822-14.822-10.643-31.309-10.643-48.698zM512 800c278.458 0 504.992-180.614 511.834-405.517-49.178 21.914-103.584 33.517-159.834 33.517-95.558 0-185.818-33.446-254.138-94.176-70.848-62.976-109.862-147.437-109.862-237.824 0-44.672 9.542-87.891 27.738-127.789-5.229-0.128-10.47-0.211-15.738-0.211-27.155 0-53.811 1.734-79.821 5.043-109.984-109.978-241.254-129.696-368.179-132.595v26.918c68.538 33.574 128 94.739 128 164.634 0 9.754-0.755 19.328-2.163 28.698-115.795 76.262-189.837 192.755-189.837 323.302 0 229.747 229.229 416 512 416z" horiz-adv-x="1152" />
<glyph unicode="&#x36;" d="M622.829 97.267c-22.112 3.52-22.611 64.314-22.611 64.314s64.966 64.314 79.13 150.803c38.093 0 61.619 91.949 23.52 124.294 1.587 34.054 48.954 267.322-190.867 267.322-239.821 0-192.448-233.267-190.867-267.322-38.093-32.352-14.573-124.294 23.52-124.294 14.157-86.483 79.13-150.803 79.13-150.803s-0.506-60.794-22.611-64.314c-71.219-11.334-337.171-128.64-337.171-257.267h896c0 128.627-265.952 245.933-337.171 257.267z" />
<glyph unicode="&#x37;" d="M734.995-5.376c-18.95 2.989-19.386 54.656-19.386 54.656s55.686 54.656 67.827 128.154c32.653 0 52.813 78.138 20.166 105.626 1.363 28.941 41.971 227.174-163.597 227.174-205.562 0-164.96-198.234-163.597-227.174-32.653-27.488-12.486-105.626 20.16-105.626 12.134-73.498 67.827-128.154 67.827-128.154s-0.435-51.667-19.386-54.656c-61.056-9.632-289.011-109.312-289.011-218.624h768c0 109.312-227.955 208.992-289.005 218.624zM344.051-22.81c44.096 27.149 97.626 52.307 141.536 67.424-15.75 22.432-33.293 52.934-44.333 89.062-15.405 12.563-27.942 30.534-36 52.602-8.064 22.106-11.123 46.854-8.608 69.683 1.805 16.39 6.477 31.667 13.651 45.088-4.352 46.586-7.411 138.035 52.448 204.73 23.213 25.869 52.557 44.461 87.699 55.686-6.266 64.762-39.149 140.774-166.445 140.774-205.562 0-164.96-198.234-163.597-227.174-32.653-27.488-12.486-105.626 20.16-105.626 12.134-73.498 67.827-128.154 67.827-128.154s-0.435-51.667-19.386-54.656c-61.050-9.638-289.005-109.318-289.005-218.63h329.594c4.71 3.072 9.51 6.138 14.458 9.19z" />
<glyph unicode="&#x38;" d="M933.792 189.747c-53.728 93.056-21.414 212.301 72.154 266.49l-100.627 174.291c-28.749-16.851-62.176-26.515-97.843-26.515-107.539 0-194.707 87.744-194.707 195.987h-201.267c0.269-33.408-8.077-67.283-25.958-98.253-53.722-93.056-173.158-124.704-266.861-70.758l-100.621-174.291c28.973-16.474 54.048-40.589 71.885-71.475 53.638-92.909 21.51-211.917-71.706-266.221l100.627-174.291c28.653 16.698 61.914 26.253 97.402 26.253 107.194 0 194.144-87.194 194.701-194.957h201.254c-0.083 33.075 8.269 66.573 25.965 97.216 53.638 92.909 172.774 124.595 266.413 71.014l100.627 174.291c-28.787 16.461-53.696 40.493-71.437 71.219zM512 80.666c-114.509 0-207.334 92.826-207.334 207.334 0 114.509 92.826 207.334 207.334 207.334 114.509 0 207.334-92.826 207.334-207.334-0.006-114.509-92.826-207.334-207.334-207.334z" />
<glyph unicode="&#x39;" d="M896 352h16c26.4 0 48 21.6 48 48v160c0 26.4-21.6 48-48 48h-16v192h-128v-192h-16c-26.4 0-48-21.6-48-48v-160c0-26.4 21.6-48 48-48h16v-576h128v576zM768 544h128v-128h-128v128zM592-32c26.4 0 48 21.6 48 48v160c0 26.4-21.6 48-48 48h-16v576h-128v-576h-16c-26.4 0-48-21.6-48-48v-160c0-26.4 21.6-48 48-48h16v-192h128v192h16zM448 160h128v-128h-128v128zM272 352c26.4 0 48 21.6 48 48v160c0 26.4-21.6 48-48 48h-16v192h-128v-192h-16c-26.4 0-48-21.6-48-48v-160c0-26.4 21.6-48 48-48h16v-576h128v576h16zM128 544h128v-128h-128v128z" />
<glyph unicode="&#x3a;" d="M1002.931-17.875l-460.55 394.758c21.446 40.301 33.619 86.285 33.619 135.117 0 159.059-128.941 288-288 288-29.094 0-57.171-4.333-83.648-12.352l166.387-166.387c24.89-24.89 24.89-65.619 0-90.509l-101.491-101.491c-24.89-24.89-65.619-24.89-90.509 0l-166.387 166.387c-8.019-26.477-12.352-54.554-12.352-83.648 0-159.059 128.941-288 288-288 48.832 0 94.816 12.173 135.117 33.619l394.758-460.55c22.906-26.726 62.016-28.224 86.906-3.341l101.491 101.491c24.89 24.89 23.386 63.994-3.341 86.906z" />
<glyph unicode="&#x3b;" d="M768 736h-128c-105.869 0-192-86.131-192-192v-192h-400c-26.4 0-48-21.6-48-48v-480c0-26.4 21.6-48 48-48h544c26.4 0 48 21.6 48 48v480c0 26.4-21.6 48-48 48h-16v192c0 35.29 28.71 64 64 64h128c35.29 0 64-28.71 64-64v-192h128v192c0 105.869-86.131 192-192 192zM384-96h-128l27.84 139.2c-16.806 11.533-27.84 30.874-27.84 52.8 0 35.347 28.653 64 64 64 35.347 0 64-28.653 64-64 0-21.926-11.034-41.267-27.84-52.8l27.84-139.2z" />
<glyph unicode="&#x3c;" d="M592 352h-16v192c0 105.869-86.131 192-192 192h-128c-105.869 0-192-86.131-192-192v-192h-16c-26.4 0-48-21.6-48-48v-480c0-26.4 21.6-48 48-48h544c26.4 0 48 21.6 48 48v480c0 26.4-21.6 48-48 48zM384-96h-128l27.84 139.2c-16.806 11.533-27.84 30.874-27.84 52.8 0 35.347 28.653 64 64 64 35.347 0 64-28.653 64-64 0-21.926-11.034-41.267-27.84-52.8l27.84-139.2zM448 352h-256v192c0 35.29 28.71 64 64 64h128c35.29 0 64-28.71 64-64v-192z" />
<glyph unicode="&#x3d;" d="M1024 800v-384l-138.259 138.259-212-212-107.482 107.482 212 212-138.259 138.259zM245.741 661.741l212-212-107.482-107.482-212 212-138.259-138.259v384h384zM885.741 21.741l138.259 138.259v-384h-384l138.259 138.259-212 212 107.482 107.482zM457.741 126.259l-212-212 138.259-138.259h-384v384l138.259-138.259 212 212z" />
<glyph unicode="&#x3e;" d="M64 224h384v-384l-138.259 138.259-202.003-201.997-107.475 107.475 201.997 202.003zM821.741 85.741l201.997-202.003-107.475-107.475-202.003 201.997-138.259-138.259v384h384zM960 352h-384v384l138.259-138.259 202.003 201.997 107.475-107.475-201.997-202.003zM309.741 597.741l138.259 138.259v-384h-384l138.259 138.259-201.997 202.003 107.475 107.475z" />
<glyph unicode="&#x3f;" d="M992.262-71.398l-242.554 206.298c-25.075 22.566-51.891 32.928-73.555 31.923 57.261 67.072 91.846 154.080 91.846 249.178 0 212.077-171.923 384-384 384-212.077 0-384-171.923-384-384 0-212.077 171.923-384 384-384 95.098 0 182.106 34.586 249.178 91.846-0.998-21.664 9.357-48.48 31.923-73.555l206.291-242.554c35.322-39.245 93.024-42.554 128.218-7.354s31.898 92.896-7.347 128.218zM384 160c-141.382 0-256 114.618-256 256s114.618 256 256 256 256-114.618 256-256-114.611-256-256-256zM192 480h384v-128h-384z" />
<glyph unicode="&#x40;" d="M992.262-71.398l-242.554 206.298c-25.075 22.566-51.891 32.928-73.555 31.923 57.261 67.072 91.846 154.080 91.846 249.178 0 212.077-171.923 384-384 384-212.077 0-384-171.923-384-384 0-212.077 171.923-384 384-384 95.098 0 182.106 34.586 249.178 91.846-0.998-21.664 9.357-48.48 31.923-73.555l206.291-242.554c35.322-39.245 93.024-42.554 128.218-7.354s31.898 92.896-7.347 128.218zM384 160c-141.382 0-256 114.618-256 256s114.618 256 256 256 256-114.618 256-256-114.611-256-256-256zM448 608h-128v-128h-128v-128h128v-128h128v128h128v128h-128z" />
<glyph unicode="&#x41;" d="M992.262-71.398l-242.554 206.298c-25.075 22.566-51.891 32.928-73.555 31.923 57.261 67.072 91.846 154.080 91.846 249.178 0 212.077-171.923 384-384 384-212.077 0-384-171.923-384-384 0-212.077 171.923-384 384-384 95.098 0 182.106 34.586 249.178 91.846-0.998-21.664 9.357-48.48 31.923-73.555l206.291-242.554c35.322-39.245 93.024-42.554 128.218-7.354s31.898 92.896-7.347 128.218zM384 160c-141.382 0-256 114.618-256 256s114.618 256 256 256 256-114.618 256-256-114.611-256-256-256z" />
<glyph unicode="&#x42;" d="M1024 416h-384l143.533 143.533c-72.531 72.525-168.96 112.467-271.533 112.467s-199.002-39.942-271.533-112.467c-72.525-72.531-112.467-168.96-112.467-271.533 0-102.573 39.942-199.002 112.467-271.533 72.531-72.525 168.96-112.467 271.533-112.467 102.573 0 199.002 39.942 271.526 112.474 6.054 6.054 11.859 12.288 17.459 18.669l96.32-84.282c-93.85-107.168-231.667-174.861-385.306-174.861-282.771 0-512 229.229-512 512 0 282.771 229.229 512 512 512 141.389 0 269.37-57.325 362.016-149.984l149.984 149.984v-384z" />
<glyph unicode="&#x43;" d="M0-32h1024v-128h-1024zM128 224h128v-192h-128zM320 480h128v-448h-128zM512 288h128v-256h-128zM704 672h128v-640h-128z" />
<glyph unicode="&#x46;" d="M512 608c-223.315 0-416.883-130.042-512-320 95.117-189.958 288.685-320 512-320 223.315 0 416.877 130.042 512 320-95.117 189.958-288.685 320-512 320zM764.448 438.298c60.16-38.374 111.142-89.773 149.434-150.298-38.291-60.525-89.274-111.923-149.434-150.298-75.597-48.218-162.893-73.702-252.448-73.702-89.562 0-176.858 25.485-252.448 73.702-60.16 38.374-111.142 89.773-149.434 150.298 38.291 60.525 89.274 111.923 149.434 150.298 3.917 2.502 7.878 4.922 11.859 7.302-9.958-27.334-15.411-56.826-15.411-87.603 0-141.382 114.618-256 256-256s256 114.618 256 256c0 30.771-5.453 60.269-15.405 87.597 3.974-2.374 7.936-4.8 11.853-7.296zM512 389.997c0-53.018-42.982-96-96-96s-96 42.982-96 96 42.982 96 96 96 96-42.976 96-96z" />
<glyph unicode="&#x47;" d="M839.322 503.584c77.645-55.027 141.37-129.094 184.678-215.584-95.123-189.958-288.685-320-512-320-62.566 0-122.79 10.214-179.181 29.082l77.958 77.958c33.056-7.302 66.97-11.040 101.222-11.040 89.555 0 176.851 25.485 252.448 73.702 60.16 38.381 111.142 89.779 149.434 150.298-37.050 58.566-86.016 108.55-143.648 146.496l69.088 69.088zM512 101.997c-22.726 0-44.755 2.982-65.728 8.538l313.184 313.184c5.562-20.973 8.544-42.995 8.544-65.722 0-141.382-114.618-256-256-256zM960 800h-53.741l-219.61-219.61c-55.078 17.92-113.754 27.61-174.65 27.61-223.315 0-416.883-130.042-512-320 42.656-85.19 105.126-158.31 181.197-213.069l-181.197-181.19v-53.741h53.741l906.259 906.259v53.741zM416 485.997c48.045 0 87.846-35.296 94.893-81.37l-109.523-109.523c-46.074 7.053-81.37 46.854-81.37 94.893 0 53.024 42.982 96 96 96zM110.118 288c38.291 60.525 89.274 111.923 149.434 150.298 3.917 2.502 7.878 4.922 11.859 7.302-9.958-27.334-15.411-56.826-15.411-87.603 0-58.522 19.648-112.448 52.698-155.565l-58.547-58.547c-56.077 37.645-103.757 86.778-140.032 144.115z" />
<glyph unicode="&#x48;" d="M1024 224l-128 256h-192v128c0 35.2-28.8 64-64 64h-576c-35.2 0-64-28.8-64-64v-512l64-64h81.165c-10.899-18.829-17.165-40.678-17.165-64 0-70.694 57.306-128 128-128s128 57.306 128 128c0 23.322-6.266 45.171-17.165 64h354.336c-10.899-18.829-17.171-40.678-17.171-64 0-70.694 57.306-128 128-128s128 57.306 128 128c0 23.322-6.272 45.171-17.171 64h81.171v192zM704 224v160h132.666l80-160h-212.666z" />
<glyph unicode="&#x49;" d="M800 672h-576c-53.018 0-96-42.982-96-96v-32h768v32c0 53.018-42.982 96-96 96zM632.32 736l14.118-100.998h-268.877l14.112 100.998h240.646M640 800h-256c-26.4 0-50.989-21.389-54.643-47.539l-18.714-133.926c-3.654-26.144 14.957-47.533 41.357-47.533h320c26.4 0 45.011 21.389 41.357 47.539l-18.714 133.926c-3.654 26.144-28.243 47.533-54.643 47.533v0zM816 480h-608c-35.2 0-61.395-28.685-58.208-63.738l52.41-576.525c3.194-35.053 34.598-63.738 69.798-63.738h480c35.2 0 66.611 28.685 69.792 63.738l52.41 576.525c3.194 35.053-23.002 63.738-58.202 63.738zM384-96h-96l-32 448h128v-448zM576-96h-128v448h128v-448zM736-96h-96v448h128l-32-448z" />
<glyph unicode="&#x4a;" d="M832 627.693c76.467 0 145.094 41.626 192 73.107v-595.693c-46.906-31.482-115.533-73.107-192-73.107s-145.094 22.669-192 54.157c-46.906 31.482-115.533 54.15-192 54.15-76.467 0-145.088-38.918-192-70.4v595.693c46.912 31.482 115.533 70.4 192 70.4s145.094-22.669 192-54.15c46.906-31.488 115.533-54.157 192-54.157zM128 800c35.347 0 64-28.653 64-64v-960h-128v960c0 35.347 28.653 64 64 64z" />
<glyph unicode="&#x4b;" d="M953.395 725.357l-4.026 4.045c-94.15 94.131-248.192 94.131-342.323 0l-218.112-218.138c-94.131-94.131-94.131-248.173 0-342.31l4.026-4.026c7.834-7.846 16.147-14.925 24.736-21.459l79.846 79.853c-9.299 5.491-18.125 12.070-26.118 20.058l-4.045 4.045c-51.117 51.098-51.117 134.272 0 185.389l218.138 218.112c51.117 51.117 134.272 51.117 185.389 0l4.045-4.026c51.098-51.117 51.098-134.291 0-185.389l-98.688-98.688c17.133-42.31 25.248-87.398 24.538-132.384l152.602 152.602c94.131 94.138 94.131 248.179-0.006 342.317zM631.040 411.066c-7.834 7.834-16.147 14.925-24.736 21.44l-79.846-79.834c9.306-5.498 18.125-12.077 26.118-20.064l4.045-4.038c51.117-51.117 51.117-134.272 0-185.389l-218.138-218.131c-51.117-51.104-134.278-51.104-185.389 0l-4.045 4.045c-51.098 51.117-51.098 134.278 0 185.389l98.688 98.688c-17.133 42.304-25.248 87.405-24.538 132.384l-152.602-152.595c-94.138-94.131-94.138-248.179 0-342.323l4.026-4.032c94.15-94.125 248.192-94.125 342.33 0l218.112 218.118c94.131 94.131 94.131 248.192 0 342.323l-4.026 4.019z" />
<glyph unicode="&#x4c;" d="M874.042 650.035c96.698-96.704 149.958-225.28 149.958-362.035 0-136.762-53.261-265.338-149.958-362.042-96.71-96.698-225.28-149.958-362.042-149.958-136.762 0-265.331 53.261-362.042 149.958-96.698 96.704-149.958 225.28-149.958 362.042 0 136.755 53.254 265.331 149.958 362.035 96.71 96.704 225.28 149.965 362.042 149.965 136.762 0 265.331-53.261 362.042-149.965zM828.787-28.787c63.053 63.059 104.986 141.606 122.272 227.066-13.478-19.84-26.368-27.194-34.349 17.203-8.218 72.39-74.707 26.15-116.512 51.859-44.006-29.658-142.906 57.664-126.099-40.826 25.933-44.416 140.006 59.45 83.149-34.541-36.275-65.613-132.646-210.931-120.109-286.259 1.581-109.741-112.134-22.88-151.315 13.523-26.355 72.922-8.979 200.371-77.894 236.083-74.803 3.251-139.008 10.048-167.994 93.67-17.446 59.827 18.56 148.896 82.675 162.643 93.85 58.97 127.373-69.050 215.392-71.43 27.328 28.595 101.818 37.683 107.994 69.747-57.754 10.195 73.267 48.557-5.53 70.387-43.469-5.114-71.482-45.075-48.371-78.963-84.237-19.642-86.931 121.907-167.91 77.261-2.054-70.592-132.218-22.886-45.037-8.57 29.958 13.082-48.858 51.014-6.278 44.122 20.915 1.133 91.334 25.811 72.275 42.4 39.213 24.339 72.16-58.291 110.541 1.882 27.706 46.266-11.622 54.81-46.349 31.36-19.584 21.92 34.566 69.274 82.33 89.734 15.917 6.822 31.123 10.534 42.746 9.485 24.058-27.789 68.55-32.608 70.88 3.341-59.584 28.538-125.28 43.61-193.293 43.61-97.619 0-190.47-31.027-267.309-88.39 20.653-9.459 32.371-21.235 12.48-36.294-15.456-46.054-78.17-107.878-133.222-99.123-28.589-49.299-47.418-103.61-55.462-160.531 46.112-15.258 56.742-45.446 46.835-55.552-23.494-20.486-37.933-49.53-45.376-81.318 15.008-91.834 58.17-176.474 125.274-243.578 84.614-84.614 197.114-131.213 316.781-131.213 119.661 0 232.166 46.598 316.787 131.213z" />
<glyph unicode="&#x4d;" d="M64 608h896v-192h-896zM64 352h896v-192h-896zM64 96h896v-192h-896z" />
<glyph unicode="&#x4e;" d="M640 653.414v-135.955c36.205-15.802 69.498-38.406 98.272-67.181 60.442-60.442 93.728-140.806 93.728-226.278s-33.286-165.837-93.728-226.272c-60.435-60.442-140.794-93.728-226.272-93.728s-165.837 33.286-226.272 93.728c-60.442 60.435-93.728 140.8-93.728 226.272s33.286 165.837 93.728 226.272c28.774 28.774 62.067 51.379 98.272 67.181v135.962c-185.050-55.085-320-226.477-320-429.414 0-247.424 200.576-448 448-448 247.424 0 448 200.576 448 448 0 202.938-134.95 374.33-320 429.414zM448 800h128v-512h-128z" />
<glyph unicode="&#x4f;" d="M448 5.491l-205.254 237.254 58.509 58.509 146.746-114.746 274.746 242.746 58.509-58.509zM831.77 672c0.077-0.064 0.16-0.147 0.23-0.23v-767.539c-0.064-0.077-0.147-0.16-0.23-0.23h-639.539c-0.083 0.064-0.16 0.147-0.23 0.23v767.539c0.064 0.083 0.147 0.16 0.23 0.23h-128.23v-768c0-70.4 57.6-128 128-128h640c70.4 0 128 57.6 128 128v768h-128.23zM640 672v64c0 35.347-28.653 64-64 64h-128c-35.347 0-64-28.653-64-64v-64h-128v-128h512v128h-128zM576 672h-128v64h128v-64z" />
<glyph unicode="&#x50;" d="M192 800v-1024l320 320 320-320v1024z" />
<glyph unicode="&#x51;" d="M1024 402.95l-353.779 51.411-158.221 320.576-158.214-320.582-353.786-51.405 256-249.536-60.429-352.352 316.429 166.355 316.435-166.355-60.435 352.352 256 249.536zM512 46.502l-223.462-117.478 42.675 248.832-180.787 176.224 249.843 36.307 111.731 226.387 111.738-226.394 249.837-36.307-180.787-176.224 42.675-248.832-223.462 117.485z" />
<glyph unicode="&#x52;" d="M1024 402.95l-353.779 51.411-158.221 320.576-158.214-320.582-353.786-51.405 256-249.536-60.429-352.352 316.429 166.355 316.435-166.355-60.435 352.352 256 249.536zM512 46.502l-0.941-0.493 0.941 570.765 111.738-226.394 249.837-36.307-180.787-176.224 42.675-248.832-223.462 117.485z" />
<glyph unicode="&#x53;" d="M1024 402.95l-353.779 51.405-158.221 320.582-158.214-320.582-353.786-51.405 256-249.536-60.429-352.352 316.429 166.355 316.435-166.355-60.435 352.352 256 249.536z" />
<glyph unicode="&#x54;" d="M1030.426 725.395c-142.944 142.944-275.213 23.059-275.213 23.059l-439.674-439.699c0 0-132.154-107.277-12.346-227.162 119.846-119.808 225.344 14.125 225.344 14.125l290.63 290.554c0 0 44.378 33.702 10.605 67.437-33.741 33.741-66.573-9.766-66.573-9.766l-263.93-263.93c0 0-79.597-102.694-139.955-40.48-60.358 62.138 40.518 139.878 40.518 139.878l369.581 369.613c0 0 103.866 114.509 201.491 16.89 97.619-97.696-17.152-201.792-17.152-201.792l-500.339-500.333c0 0-160.064-185.018-308.307-36.73-148.25 148.25 38.47 306.528 38.47 306.528l379.878 379.994c0 0 42.598 35.52 10.682 67.437-31.923 31.923-67.475-10.643-67.475-10.643l-435.853-435.878c0 0-164.493-180.512 19.277-364.243 183.731-183.763 364.243-19.2 364.243-19.2l599.123 599.13c0 0 119.846 132.269-23.027 275.213z" horiz-adv-x="1133" />
<glyph unicode="&#x55;" d="M882.669 801.075c-204.518 0-279.891-183.456-279.891-183.456s-86.048 183.456-279.84 183.456c-211.731 0-322.938-179.366-322.938-358.771 0-297.83 602.778-667.379 602.778-667.379s599.219 365.939 599.219 667.379c0.006 182.97-114.81 358.771-319.328 358.771z" horiz-adv-x="1197" />
<glyph unicode="&#x56;" d="M928 224c72.998 0 32-192-32-192 32 0 0-160-64-160 0-64-64-96-128-96-270.349 0-175.264 67.648-448 96v512c240.922 72.269 480 253.427 480 416 52.998 0 192-64 0-384 0 0 160 0 192 0 96 0 64-192 0-192zM192 384v-512h64v-32h-128c-35.2 0-64 43.2-64 96v384c0 52.8 28.8 96 64 96h128v-32h-64z" />
<glyph unicode="&#x57;" d="M96 352c-72.998 0-32 192 32 192-32 0 0 160 64 160 0 64 64 96 128 96 270.349 0 175.264-67.648 448-96v-512c-240.922-72.269-480-253.421-480-416-52.998 0-192 64 0 384 0 0-160 0-192 0-96 0-64 192 0 192zM832 192v512h-64v32h128c35.2 0 64-43.2 64-96v-384c0-52.8-28.8-96-64-96h-128v32h64z" />
<glyph unicode="&#x59;" d="M512 800c-282.771 0-512-229.229-512-512s229.229-512 512-512 512 229.229 512 512-229.229 512-512 512zM448 608h128v-128h-128v128zM640-32h-256v64h64v256h-64v64h192v-320h64v-64z" />
<glyph unicode="&#x5a;" d="M0 288c0-282.771 229.229-512 512-512s512 229.229 512 512-229.229 512-512 512c-282.771 0-512-229.229-512-512zM896 288c0-73.235-20.512-141.683-56.090-199.91l-527.821 527.821c58.227 35.578 126.675 56.090 199.91 56.090 212.077 0 384-171.923 384-384zM128 288c0 73.235 20.512 141.677 56.090 199.91l527.821-527.821c-58.234-35.578-126.675-56.090-199.91-56.090-212.077 0-384 171.923-384 384z" />
<glyph unicode="&#x5b;" d="M512 641.274l-344.832-737.274h689.664l-344.832 737.274zM512 800v0c22.067 0 44.141-14.88 60.883-44.646l437.075-871.117c33.485-59.526 4.998-108.237-63.302-108.237h-869.312c-68.301 0-96.787 48.71-63.302 108.237l437.075 871.117c16.742 29.766 38.816 44.646 60.883 44.646zM448 32c0-35.346 28.654-64 64-64s64 28.654 64 64c0 35.346-28.654 64-64 64-35.346 0-64-28.654-64-64zM512 416c35.347 0 64-28.653 64-64l-20-192h-88l-20 192c0 35.347 28.653 64 64 64z" />
<glyph unicode="&#x5c;" d="M736 800h-448l-288-288v-448l288-288h448l288 288v448l-288 288zM576-32h-128v128h128v-128zM576 224h-128v384h128v-384z" />
<glyph unicode="&#x5d;" d="M1014.662-22.662c-0.006 0.006-0.006 0.006-0.013 0.013l-310.643 310.65 310.643 310.65c0.006 0.006 0.006 0.006 0.013 0.013 3.341 3.347 5.76 7.251 7.315 11.418 4.243 11.373 1.824 24.685-7.322 33.83l-146.752 146.739c-9.146 9.146-22.451 11.565-33.83 7.322-4.16-1.549-8.070-3.968-11.418-7.309 0-0.006-0.006-0.006-0.006-0.013l-310.65-310.65-310.643 310.65c-0.006 0.006-0.006 0.006-0.013 0.013-3.347 3.341-7.251 5.76-11.411 7.309-11.379 4.25-24.685 1.824-33.83-7.322l-146.752-146.746c-9.146-9.146-11.565-22.451-7.322-33.83 1.549-4.16 3.968-8.070 7.315-11.418 0.006 0 0.006-0.006 0.013-0.013l310.643-310.643-310.65-310.65c0-0.006-0.006-0.006-0.006-0.013-3.341-3.347-5.76-7.251-7.315-11.411-4.25-11.373-1.824-24.685 7.322-33.83l146.746-146.746c9.152-9.146 22.451-11.565 33.83-7.322 4.16 1.549 8.070 3.968 11.418 7.315 0 0.006 0.006 0.006 0.013 0.013l310.65 310.65 310.65-310.65c0.006 0 0.006-0.006 0.013-0.006 3.347-3.341 7.251-5.76 11.411-7.315 11.379-4.243 24.685-1.824 33.83 7.322l146.746 146.746c9.146 9.146 11.571 22.451 7.322 33.83-1.555 4.154-3.974 8.064-7.315 11.405z" />
<glyph unicode="&#x5e;" d="M864 672l-480-480-224 224-160-160 384-384 640 640z" />
<glyph unicode="&#x5f;" d="M0 384v-192c0-17.67 14.33-32 32-32h960c17.67 0 32 14.33 32 32v192c0 17.67-14.33 32-32 32h-960c-17.67 0-32-14.33-32-32z" />
<glyph unicode="&#x60;" d="M992 416h-352v352c0 17.67-14.33 32-32 32h-192c-17.67 0-32-14.33-32-32v-352h-352c-17.67 0-32-14.33-32-32v-192c0-17.67 14.33-32 32-32h352v-352c0-17.67 14.33-32 32-32h192c17.67 0 32 14.33 32 32v352h352c17.67 0 32 14.33 32 32v192c0 17.67-14.33 32-32 32z" />
<glyph unicode="&#x61;" d="M192 672l640-384-640-384z" />
<glyph unicode="&#x62;" d="M128 672h320v-768h-320zM576 672h320v-768h-320z" />
<glyph unicode="&#x63;" d="M128 672h768v-768h-768z" />
<glyph unicode="&#x64;" d="M576 640v-320l320 320v-704l-320 320v-320l-352 352z" />
<glyph unicode="&#x65;" d="M512-64v320l-320-320v704l320-320v320l352-352z" />
<glyph unicode="&#x66;" d="M128-96v768h128v-352l320 320v-320l320 320v-704l-320 320v-320l-320 320v-352z" />
<glyph unicode="&#x67;" d="M896 672v-768h-128v352l-320-320v320l-320-320v704l320-320v320l320-320v352z" />
<glyph unicode="&#x68;" d="M256-96v768h128v-352l320 320v-704l-320 320v-352z" />
<glyph unicode="&#x69;" d="M768 672v-768h-128v352l-320-320v704l320-320v352z" />
<glyph unicode="&#x6a;" d="M0 32h1024v-128h-1024zM512 672l512-512h-1024z" />
<glyph unicode="&#x6b;" d="M890.042-122.042c-12.288 0-24.57 4.685-33.939 14.061-18.746 18.746-18.746 49.139 0 67.885 87.635 87.635 135.898 204.154 135.898 328.096 0 123.936-48.269 240.461-135.904 328.096-18.746 18.746-18.746 49.139 0 67.885 18.746 18.746 49.139 18.746 67.885 0 105.773-105.773 164.019-246.4 164.019-395.981 0-149.581-58.253-290.208-164.019-395.981-9.376-9.376-21.658-14.061-33.939-14.061zM719.533-31.533c-12.288 0-24.57 4.685-33.939 14.061-18.746 18.746-18.746 49.139 0 67.885 131.008 131.008 131.008 344.173 0 475.174-18.746 18.746-18.746 49.139 0 67.885 18.746 18.739 49.139 18.746 67.885 0 81.587-81.594 126.522-190.080 126.522-305.472 0-115.392-44.934-223.878-126.528-305.472-9.376-9.37-21.658-14.061-33.939-14.061zM549.018 58.982c-12.288 0-24.57 4.685-33.939 14.061-18.746 18.746-18.746 49.139 0 67.885 81.101 81.101 81.101 213.056 0 294.157-18.746 18.746-18.746 49.139 0 67.885 18.746 18.746 49.139 18.746 67.885 0 118.528-118.528 118.528-311.392 0-429.92-9.376-9.382-21.658-14.067-33.946-14.067zM401.331 721.331c25.67 25.67 46.669 16.966 46.669-19.334v-828c0-36.294-20.998-44.992-46.669-19.328l-241.331 241.331h-160v384h160l241.331 241.331z" horiz-adv-x="1088" />
<glyph unicode="&#x6c;" d="M719.533-31.533c-12.288 0-24.57 4.685-33.939 14.061-18.746 18.746-18.746 49.139 0 67.885 131.008 131.008 131.008 344.173 0 475.174-18.746 18.746-18.746 49.139 0 67.885 18.746 18.739 49.139 18.746 67.885 0 81.587-81.594 126.522-190.080 126.522-305.472 0-115.392-44.934-223.878-126.528-305.472-9.376-9.37-21.658-14.061-33.939-14.061zM549.018 58.982c-12.288 0-24.57 4.685-33.939 14.061-18.746 18.746-18.746 49.139 0 67.885 81.101 81.101 81.101 213.056 0 294.157-18.746 18.746-18.746 49.139 0 67.885 18.746 18.746 49.139 18.746 67.885 0 118.528-118.528 118.528-311.392 0-429.92-9.376-9.382-21.658-14.067-33.946-14.067zM401.331 721.331c25.67 25.67 46.669 16.966 46.669-19.334v-828c0-36.294-20.998-44.992-46.669-19.328l-241.331 241.331h-160v384h160l241.331 241.331z" />
<glyph unicode="&#x6d;" d="M549.018 58.982c-12.288 0-24.57 4.685-33.939 14.061-18.746 18.746-18.746 49.139 0 67.885 81.101 81.101 81.101 213.056 0 294.157-18.746 18.746-18.746 49.139 0 67.885 18.746 18.746 49.139 18.746 67.885 0 118.528-118.528 118.528-311.392 0-429.92-9.376-9.382-21.658-14.067-33.946-14.067zM401.331 721.331c25.67 25.67 46.669 16.966 46.669-19.334v-828c0-36.294-20.998-44.992-46.669-19.328l-241.331 241.331h-160v384h160l241.331 241.331z" />
<glyph unicode="&#x6e;" d="M401.331 721.331c25.67 25.67 46.669 16.966 46.669-19.334v-828c0-36.294-20.998-44.992-46.669-19.328l-241.331 241.331h-160v384h160l241.331 241.331z" />
<glyph unicode="&#x6f;" d="M401.331 721.331c25.67 25.67 46.669 16.966 46.669-19.334v-828c0-36.294-20.998-44.992-46.669-19.328l-241.331 241.331h-160v384h160l241.331 241.331zM960 180.851v-84.851h-84.851l-107.149 107.149-107.149-107.149h-84.851v84.851l107.149 107.149-107.149 107.149v84.851h84.851l107.149-107.149 107.149 107.149h84.851v-84.851l-107.149-107.149z" />
<glyph unicode="&#x70;" d="M428.166 736.083c11.974 0 19.834-11.878 19.834-34.086v-828c0-22.202-7.853-34.080-19.834-34.080-7.603 0-16.87 4.787-26.835 14.752l-241.331 241.331h-160v384h160l241.331 241.331c9.965 9.965 19.232 14.752 26.835 14.752zM1024 224h-192v-192h-128v192h-192v128h192v192h128v-192h192z" />
<glyph unicode="&#x71;" d="M428.166 736.083c11.974 0 19.834-11.878 19.834-34.086v-828c0-22.202-7.853-34.080-19.834-34.080-7.603 0-16.87 4.787-26.835 14.752l-241.331 241.331h-160v384h160l241.331 241.331c9.965 9.965 19.232 14.752 26.835 14.752zM512 352h512v-128h-512z" />
<glyph unicode="&#x72;" d="M128 224c0-35.347 28.653-64 64-64s64 28.653 64 64v229.491l530.746-530.746c24.992-24.992 65.517-24.992 90.509 0 12.499 12.499 18.746 28.877 18.746 45.254s-6.246 32.755-18.746 45.254l-530.746 530.746h229.491c35.347 0 64 28.653 64 64s-28.653 64-64 64h-448v-448z" />
<glyph unicode="&#x73;" d="M877.254 397.254l-320 320c-24.992 24.992-65.517 24.992-90.509 0l-320-320c-24.992-24.992-24.992-65.517 0-90.509 24.992-24.998 65.517-24.998 90.509 0l210.746 210.746v-613.491c0-35.347 28.653-64 64-64s64 28.653 64 64v613.491l210.746-210.746c12.499-12.499 28.877-18.746 45.254-18.746s32.755 6.246 45.254 18.746c24.992 24.992 24.992 65.517 0 90.509z" />
<glyph unicode="&#x74;" d="M832.019 672c-0.013 0-0.026 0-0.038 0h-383.981c-35.347 0-64-28.653-64-64s28.653-64 64-64h229.491l-530.746-530.746c-24.992-24.992-24.992-65.517 0-90.509 12.499-12.499 28.877-18.746 45.254-18.746s32.755 6.246 45.254 18.746l530.746 530.746v-229.491c0-35.347 28.653-64 64-64s64 28.653 64 64v448h-63.981z" />
<glyph unicode="&#x75;" d="M621.254-77.254l320 320c24.992 24.992 24.992 65.517 0 90.509l-320 320c-24.992 24.992-65.517 24.992-90.509 0-24.992-24.992-24.992-65.517 0-90.509l210.746-210.746h-613.491c-35.347 0-64-28.653-64-64s28.653-64 64-64h613.491l-210.746-210.746c-12.499-12.499-18.746-28.877-18.746-45.254s6.246-32.755 18.746-45.254c24.992-24.992 65.517-24.992 90.509 0z" />
<glyph unicode="&#x76;" d="M896 352c0 35.347-28.653 64-64 64s-64-28.653-64-64v-229.491l-530.746 530.746c-24.992 24.992-65.517 24.992-90.509 0-12.499-12.499-18.746-28.877-18.746-45.254s6.246-32.755 18.746-45.254l530.746-530.746h-229.491c-35.347 0-64-28.653-64-64s28.653-64 64-64h448v448z" />
<glyph unicode="&#x77;" d="M146.746 178.746l320-320c24.992-24.992 65.517-24.992 90.509 0l320 320c24.992 24.992 24.992 65.517 0 90.509s-65.517 24.992-90.509 0l-210.746-210.746v613.491c0 35.347-28.653 64-64 64s-64-28.653-64-64v-613.491l-210.746 210.746c-12.499 12.499-28.877 18.746-45.254 18.746s-32.755-6.246-45.254-18.746c-24.992-24.992-24.992-65.517 0-90.509z" />
<glyph unicode="&#x78;" d="M576-96c35.347 0 64 28.653 64 64s-28.653 64-64 64h-229.491l530.746 530.746c24.992 24.992 24.992 65.517 0 90.509-12.499 12.499-28.877 18.746-45.254 18.746s-32.755-6.246-45.254-18.746l-530.746-530.746v229.491c0 35.347-28.653 64-64 64s-64-28.653-64-64v-448h448z" />
<glyph unicode="&#x79;" d="M402.746 653.254l-320-320c-24.992-24.992-24.992-65.517 0-90.509l320-320c24.992-24.992 65.517-24.992 90.509 0 24.998 24.992 24.998 65.517 0 90.509l-210.746 210.746h613.491c35.347 0 64 28.653 64 64s-28.653 64-64 64h-613.491l210.746 210.746c12.493 12.499 18.746 28.877 18.746 45.254s-6.246 32.755-18.746 45.254c-24.992 24.992-65.517 24.992-90.509 0z" />
<glyph unicode="&#x7a;" d="M707.878 315.347c37.498 44.544 60.122 102.010 60.122 164.653 0 141.158-114.842 256-256 256h-320v-896h384c141.158 0 256 114.842 256 256 0 92.954-49.798 174.496-124.122 219.347zM384 608h101.498c55.968 0 101.498-57.421 101.498-128s-45.53-128-101.498-128h-101.498v256zM543.002-32h-159.002v256h159.002c58.451 0 106.003-57.421 106.003-128s-47.552-128-106.003-128z" />
<glyph unicode="&#x7b;" d="M704 736h128v-416c0-159.059-143.27-288-320-288s-320 128.941-320 288v416h128v-416c0-40.166 18.24-78.701 51.354-108.506 36.896-33.203 86.848-51.494 140.646-51.494 53.798 0 103.75 18.291 140.646 51.494 33.114 29.805 51.354 68.339 51.354 108.506v416zM192-32h640v-128h-640z" />
<glyph unicode="&#x7c;" d="M896 736v-64h-128l-320-768h128v-64h-448v64h128l320 768h-128v64z" />
<glyph unicode="&#x7d;" d="M0 736h1024v-128h-1024zM0 544h640v-128h-640zM0 160h640v-128h-640zM0 352h1024v-128h-1024zM0-32h1024v-128h-1024z" />
<glyph unicode="&#x7e;" d="M0 736h1024v-128h-1024zM192 544h640v-128h-640zM192 160h640v-128h-640zM0 352h1024v-128h-1024zM0-32h1024v-128h-1024z" />
<glyph unicode="&#xe000;" d="M0 736h1024v-128h-1024zM384 544h640v-128h-640zM384 160h640v-128h-640zM0 352h1024v-128h-1024zM0-32h1024v-128h-1024z" />
<glyph unicode="&#xe001;" d="M0 736h1024v-128h-1024zM0 544h1024v-128h-1024zM0 352h1024v-128h-1024zM0 160h1024v-128h-1024zM0-32h1024v-128h-1024z" />
<glyph unicode="&#xe002;" d="M288 544l-256-256 256-256h128l-256 256 256 256h-128zM736 544h-128l256-256-256-256h128l256 256-256 256z" />
<glyph unicode="&#xe003;" d="M128 288l256 256h-128l-256-256 256-256h128zM768 544h-128l256-256-256-256h128l256 256zM544 672l-160-768h96l160 768z" />
<glyph unicode="&#xe004;" d="M704 800c-176.73 0-320-143.27-320-320 0-20.026 1.856-39.616 5.376-58.624l-389.376-389.376v-192c0-35.347 28.653-64 64-64h64v64h128v128h128v128h128l83.040 83.040c34.010-12.314 70.701-19.040 108.96-19.040 176.73 0 320 143.27 320 320s-143.27 320-320 320zM799.872 479.872c-53.018 0-96 42.982-96 96s42.982 96 96 96 96-42.982 96-96-42.976-96-96-96z" />
<glyph unicode="&#xe005;" d="M1014.88-126.496c12.192-12.192 12.192-31.968 0-44.192l-44.192-44.192c-12.224-12.192-32-12.192-44.192 0l-309.376 309.376c-3.36 3.36-5.6 7.328-7.104 11.552-63.456-46.368-141.376-74.048-226.016-74.048-212.064 0-384 171.936-384 384 0 212.064 171.936 384 384 384 212.064 0 384-171.936 384-384 0-84.64-27.68-162.56-74.048-226.016 4.224-1.504 8.192-3.712 11.552-7.104l309.376-309.376zM384 672c-141.376 0-256-114.624-256-256s114.624-256 256-256 256 114.624 256 256c0 141.376-114.624 256-256 256z" />
<glyph unicode="&#xe006;" d="M510.016-224c0 0-318.016 449.984-318.016 641.984 0 378.016 318.016 382.016 318.016 382.016s321.984-4 321.984-380c0-197.984-321.984-644-321.984-644zM512 608c-70.688 0-128-57.312-128-128s57.312-128 128-128 128 57.312 128 128-57.312 128-128 128z" />
<glyph unicode="&#xe007;" d="M512.416-224v512.544h-512.416l1024 511.456-511.584-1024z" />
<glyph unicode="&#xe008;" d="M-0.538 423.462l376.531 376.538 376.538-376.538zM752.538 152.538l-376.544-376.538-376.525 376.538z" horiz-adv-x="749" />
<glyph unicode="&#xe009;" d="M965.536 558.656l-10.048-10.048-183.232 183.328 10.016 10.016c0 0 43.872 58.016 106.272 58.016 27.488 0 58.624-11.296 91.168-43.84 107.328-107.328-14.176-197.472-14.176-197.472zM895.328 488.416l-623.968-624.192-271.36-88.224 88.192 271.52v0.096h0.064l623.872 624.16 8.064-8.096M88.32-135.648l135.584 39.008-92.608 98.624-42.976-137.632z" />
<glyph unicode="&#xe00a;" d="M928-224h-704c-17.664 0-32 14.304-32 32v32h-96c-17.696 0-32 14.304-32 32v64c0 17.696 14.304 32 32 32h96v64h-96c-17.696 0-32 14.304-32 32v64c0 17.696 14.304 32 32 32h96v64h-96c-17.696 0-32 14.304-32 32v64c0 17.696 14.304 32 32 32h96v64h-96c-17.696 0-32 14.304-32 32v64c0 17.696 14.304 32 32 32h96v64h-96c-17.696 0-32 14.304-32 32v64c0 17.696 14.304 32 32 32h96v32c0 17.696 14.336 32 32 32h704c17.696 0 32-14.304 32-32v-960c0-17.696-14.304-32-32-32zM192 704h-64c-17.696 0-32-14.304-32-32s14.304-32 32-32h64c17.696 0 32 14.304 32 32s-14.304 32-32 32zM192 512h-64c-17.696 0-32-14.304-32-32s14.304-32 32-32h64c17.696 0 32 14.304 32 32s-14.304 32-32 32zM192 320h-64c-17.696 0-32-14.304-32-32s14.304-32 32-32h64c17.696 0 32 14.304 32 32s-14.304 32-32 32zM192 128h-64c-17.696 0-32-14.304-32-32s14.304-32 32-32h64c17.696 0 32 14.304 32 32s-14.304 32-32 32zM192-64h-64c-17.696 0-32-14.304-32-32s14.304-32 32-32h64c17.696 0 32 14.304 32 32s-14.304 32-32 32zM768 132c0 54.56-67.776 74.144-157.184 82.336 3.712 2.272 7.104 6.016 10.464 9.664h-13.28c17.696 0 32 14.304 32 32v192c0 17.696-14.304 32-32 32h-64c-17.696 0-32-14.304-32-32v-192c0-17.696 14.304-32 32-32h-13.28c3.36-3.648 6.784-7.36 10.464-9.664-89.408-8.192-157.184-28.512-157.184-82.336v-36h384v36z" />
<glyph unicode="&#xe00b;" d="M854.003 800h-684c-93.504 0-170.003-76.499-170.003-170.003v-684c0-93.498 76.499-170.003 170.003-170.003h684c93.498 0 170.003 76.499 170.003 170.003l-0.006 684c0 93.504-76.499 170.003-169.997 170.003zM327.802 352h368.403c6.989-20.058 10.803-41.587 10.803-64 0-107.526-87.475-195.002-195.002-195.002-107.526 0-195.002 87.475-195.002 195.002-0.006 22.413 3.808 43.942 10.797 64zM896 351.949v-383.949c0-35.2-28.8-64-64-64h-640c-35.2 0-64 28.8-64 64v384h100.109c-4.64-20.602-7.11-42.016-7.11-64 0-160.461 130.541-291.002 291.002-291.002 160.461 0 291.002 130.541 291.002 291.002 0 21.984-2.464 43.398-7.11 64l100.109-0.051zM896 576c0-17.6-14.4-32-32-32h-64c-17.6 0-32 14.4-32 32v64c0 17.6 14.4 32 32 32h64c17.6 0 32-14.4 32-32v-64z" />
<glyph unicode="&#xe00c;" d="M956.288-4.48l-316.288 527.021v213.459h32c17.6 0 32 14.4 32 32s-14.4 32-32 32h-320c-17.6 0-32-14.4-32-32s14.4-32 32-32h32v-213.459l-316.288-527.021c-72.442-120.736-16.512-219.52 124.288-219.52h640c140.8 0 196.73 98.784 124.288 219.52zM241.037 160l206.963 344.941v231.059h128v-231.059l206.963-344.941h-541.926z" />
<glyph unicode="&#xe00d;" d="M384 213.331c0 0 203.942 122.362 318.765 74.029 23.802 36.269 47.245 75.334 70.202 115.219-112.326 27.52-260.966 2.752-260.966 2.752s190.214 114.125 306.669 78.4c23.347 42.106 46.054 83.642 67.955 122.304-92.781 6.272-182.624-8.704-182.624-8.704s119.149 71.488 226.579 83.597c33.798 54.867 65.171 97.882 93.421 119.072-560.998 0-896-640-1024-1024h64l192 320c0 0 64-64 256 0 45.472 15.155 90.95 57.254 135.571 113.933-112.614 28.557-263.571 3.398-263.571 3.398z" />
<glyph unicode="&#xe00e;" d="M896 800h-768c-17.664 0-32-14.336-32-32v-192c0-17.664 14.336-32 32-32h32c17.664 0 32 14.336 32 32l64 96h192v-768l-160-64c-17.664 0-32-14.304-32-32s14.336-32 32-32h448c17.696 0 32 14.304 32 32s-14.304 32-32 32l-160 64v768h192l64-96c0-17.664 14.304-32 32-32h32c17.696 0 32 14.336 32 32v192c0 17.664-14.304 32-32 32z" />
<glyph unicode="&#xe00f;" d="M224.998 352c123.712 0 224-100.288 224-224s-100.288-224-224-224c-123.712 0-224 100.288-224 224l-0.998 32c0 247.424 200.576 448 448 448v-128c-85.472 0-165.837-33.286-226.272-93.728-11.635-11.635-22.253-24.013-31.834-37.018 11.437 1.798 23.162 2.746 35.104 2.746zM800.998 352c123.712 0 224-100.288 224-224s-100.288-224-224-224c-123.706 0-224 100.288-224 224l-0.998 32c0 247.424 200.576 448 448 448v-128c-85.472 0-165.837-33.286-226.272-93.728-11.635-11.635-22.259-24.013-31.834-37.018 11.437 1.798 23.162 2.746 35.104 2.746z" />
<glyph unicode="&#xe010;" d="M1024 800v-416l-160 160-192-192-96 96 192 192-160 160zM448 128l-192-192 160-160h-416v416l160-160 192 192z" />
<glyph unicode="&#xe011;" d="M448 224v-416l-160 160-192-192-96 96 192 192-160 160zM1024 704l-192-192 160-160h-416v416l160-160 192 192z" />
<glyph unicode="&#xe012;" d="M981.19 639.891c-143.635 20.653-302.336 32.109-469.19 32.109-166.861 0-325.555-11.456-469.197-32.109-27.526-107.725-42.803-226.752-42.803-351.891 0-125.139 15.277-244.166 42.81-351.891 143.635-20.653 302.336-32.109 469.19-32.109 166.854 0 325.555 11.456 469.184 32.109 27.539 107.725 42.816 226.752 42.816 351.891 0 125.139-15.277 244.166-42.81 351.891zM384 96v384l320-192-320-192z" />
<glyph unicode="&#xe013;" d="M895.942 166.496c-0.013 0.704-0.032 1.402-0.045 2.106-0.032 1.427-0.070 2.854-0.115 4.282-10.035 315.648-383.782 627.117-383.782 627.117s-373.754-311.469-383.782-627.123c-0.045-1.427-0.090-2.854-0.122-4.282-0.013-0.704-0.032-1.402-0.045-2.106-0.038-2.163-0.058-4.326-0.058-6.496 0-2.368 0.026-4.723 0.070-7.078 0.006-0.198 0.006-0.39 0.013-0.589 4.090-208.531 174.406-376.326 383.923-376.326 209.517 0 379.834 167.795 383.917 376.339 0.006 0.198 0.006 0.39 0.013 0.589 0.045 2.355 0.070 4.717 0.070 7.078 0 2.163-0.026 4.333-0.058 6.49zM767.949 155.258l-0.006-0.403c-1.318-67.283-28.531-130.336-76.627-177.549-48.141-47.27-111.827-73.306-179.315-73.306-12.461 0-24.794 0.896-36.922 2.637 139.059 82.848 232.218 234.701 232.218 408.32 0 19.456-1.178 38.637-3.45 57.478 40.269-73.939 62.061-142.803 64-203.629l0.006-0.141c0.032-0.947 0.051-1.894 0.077-2.842l0.026-1.446c0.026-1.453 0.045-2.918 0.045-4.378 0-1.581-0.019-3.162-0.051-4.742z" />
<glyph unicode="&#xe014;" d="M1024 192l-192 192v288h-128v-160l-192 192-512-512v-32h128v-320h320v192h128v-192h320v320h128z" />
<glyph unicode="&#xe015;" d="M1024 370.746c0 200.928-58.79 363.936-131.482 365.229 0.294 0.006 0.576 0.032 0.87 0.032h-82.944c0 0-194.803-146.336-475.232-203.757-8.563-45.293-14.029-99.277-14.029-161.504 0-62.227 5.466-116.205 14.029-161.498 280.429-57.421 475.232-203.757 475.232-203.757h82.944c-0.294 0-0.576 0.026-0.87 0.032 72.698 1.286 131.482 164.294 131.482 365.222zM864.826 60.749c-9.382 0-19.533 9.741-24.749 15.546-12.627 14.061-24.794 35.962-35.187 63.328-23.258 61.229-36.064 143.309-36.064 231.123 0 87.808 12.813 169.888 36.064 231.123 10.394 27.366 22.56 49.267 35.187 63.328 5.216 5.811 15.366 15.552 24.749 15.552 9.382 0 19.539-9.741 24.742-15.552 12.634-14.061 24.794-35.955 35.187-63.328 23.258-61.229 36.070-143.315 36.070-231.123 0-87.802-12.813-169.888-36.070-231.123-10.387-27.366-22.56-49.267-35.187-63.328-5.21-5.805-15.36-15.546-24.742-15.546zM251.814 370.746c0 51.949 3.808 102.432 11.053 149.094-47.373-6.554-88.941-10.323-140.339-10.323-67.059 0-67.059 0-67.059 0l-55.469-94.688v-88.173l55.462-94.688c0 0 0 0 67.059 0 51.398 0 92.966-3.776 140.339-10.323-7.238 46.669-11.046 97.152-11.046 149.101zM368.147 157.83l-128 24.512 81.843-321.542c4.237-16.634 20.742-25.037 36.685-18.656l118.554 47.45c15.942 6.374 22.33 23.962 14.195 39.085l-123.277 229.152zM864.826 251.27c-3.616 0-7.526 3.757-9.536 5.99-4.87 5.421-9.555 13.862-13.562 24.41-8.96 23.603-13.901 55.232-13.901 89.075 0 33.843 4.941 65.478 13.901 89.075 4.006 10.547 8.698 18.989 13.562 24.41 2.010 2.24 5.92 5.997 9.536 5.997 3.616 0 7.533-3.757 9.536-5.997 4.87-5.421 9.555-13.856 13.562-24.41 8.966-23.597 13.901-55.232 13.901-89.075 0-33.843-4.941-65.478-13.901-89.075-4.006-10.547-8.698-18.989-13.562-24.41-2.010-2.24-5.92-5.99-9.536-5.99z" />
<glyph unicode="&#xe016;" d="M992 736h-224c-52.8 0-126.547-30.547-163.885-67.885l-376.23-376.23c-37.331-37.331-37.331-98.426 0-135.763l280.237-280.237c37.331-37.338 98.426-37.338 135.763 0l376.237 376.237c37.331 37.331 67.878 111.078 67.878 163.878v224c0 52.8-43.2 96-96 96zM864 416c-53.018 0-96 42.982-96 96s42.982 96 96 96 96-42.982 96-96-42.982-96-96-96zM86.624 201.376l342.381-342.381c-36.262-19.162-82.464-13.536-112.89 16.89l-280.23 280.23c-37.338 37.338-37.338 98.432 0 135.77l376.23 376.23c37.338 37.338 111.085 67.885 163.885 67.885l-489.376-489.37c-12.442-12.448-12.442-32.813 0-45.254z" horiz-adv-x="1088" />
<glyph unicode="&#xe017;" d="M896 672v-832h-672c-53.024 0-96 42.982-96 96s42.976 96 96 96h608v768h-640c-70.4 0-128-57.6-128-128v-768c0-70.4 57.6-128 128-128h768v896h-64zM256-32h576v-64h-576z" />
<glyph unicode="&#xe018;" d="M1024 605.581c-37.677-16.71-78.163-28-120.659-33.082 43.373 26.003 76.685 67.168 92.371 116.23-40.595-24.077-85.555-41.562-133.408-50.982-38.317 40.832-92.922 66.342-153.344 66.342-116.019 0-210.086-94.061-210.086-210.080 0-16.467 1.856-32.499 5.44-47.878-174.598 8.762-329.402 92.403-433.018 219.507-18.086-31.027-28.448-67.117-28.448-105.619 0-72.89 37.088-137.19 93.459-174.867-34.438 1.094-66.829 10.541-95.155 26.278-0.019-0.877-0.019-1.754-0.019-2.643 0-101.786 72.416-186.694 168.525-206.003-17.626-4.8-36.186-7.373-55.347-7.373-13.536 0-26.701 1.318-39.526 3.77 26.739-83.462 104.32-144.205 196.25-145.894-71.898-56.352-162.483-89.933-260.915-89.933-16.96 0-33.683 0.992-50.118 2.938 92.973-59.61 203.405-94.394 322.042-94.394 386.419 0 597.734 320.122 597.734 597.747 0 9.107-0.205 18.17-0.608 27.181 41.050 29.626 76.666 66.63 104.832 108.755z" />
<glyph unicode="&#xe019;" d="M882.669 801.075c-60.544 0-109.472-16.25-148.781-38.867l-104.128-179.987 172.243-150.694-211.686-423.373 60.992 387.488-229.722 165.037 81.338 177.318c-44.205 34.496-103.635 63.078-179.987 63.078-211.731 0-322.938-179.366-322.938-358.771 0-297.83 602.778-667.379 602.778-667.379s599.264 365.901 599.264 667.379c-0.038 182.97-114.854 358.771-319.373 358.771z" horiz-adv-x="1197" />
<glyph unicode="&#xe01a;" d="M0 491.629l41.594-54.541c0 0 85.773 67.61 114.362 33.805 28.589-33.805 137.734-441.958 174.17-517.248 31.802-66.029 119.52-153.318 215.712-90.982 96.134 62.342 415.84 335.283 473.069 657.613 57.178 322.227-384.723 254.726-431.533-26.010 116.992 70.234 179.437-28.538 119.571-140.371-59.757-111.725-114.362-184.595-142.95-184.595-28.538 0-50.49 74.771-83.187 205.446-33.798 135.104-33.594 378.458-174.118 350.867-132.518-26.010-306.688-233.984-306.688-233.984z" />
<glyph unicode="&#xe01b;" d="M512 800c-282.771 0-512-229.229-512-512s229.229-512 512-512c282.771 0 512 229.229 512 512s-229.229 512-512 512zM561.645 115.885c-46.522 3.616-66.042 26.656-102.502 48.806-20.064-105.178-44.563-206.016-117.139-258.688-22.406 158.97 32.896 278.362 58.573 405.114-43.782 73.709 5.267 222.035 97.619 185.472 113.626-44.947-98.4-274.010 43.93-302.618 148.621-29.869 209.286 257.856 117.139 351.424-133.158 135.104-387.597 3.078-356.307-190.355 7.616-47.29 56.474-61.638 19.526-126.899-85.222 18.893-110.65 86.099-107.373 175.712 5.267 146.675 131.782 249.363 258.688 263.565 160.486 17.965 311.104-58.906 331.904-209.875 23.405-170.387-72.454-354.931-244.058-341.658z" />
<glyph unicode="&#xe01c;" d="M559.066 736c0 0-200.954 0-267.942 0-120.115 0-233.165-91.008-233.165-196.422 0-107.725 81.882-194.669 204.090-194.669 8.499 0 16.755 0.173 24.845 0.749-7.93-15.187-13.6-32.288-13.6-50.042 0-29.939 16.102-54.208 36.467-74.022-15.386 0-30.24-0.448-46.451-0.448-148.794 0.006-263.309-94.752-263.309-193.018 0-96.781 125.542-157.312 274.336-157.312 169.626 0 263.309 96.243 263.309 193.030 0 77.6-22.899 124.070-93.683 174.131-24.218 17.146-70.528 58.835-70.528 83.341 0 28.717 8.198 42.867 51.43 76.646 44.314 34.624 75.674 83.302 75.674 139.917 0 67.405-30.022 133.101-86.374 154.771h84.954l59.949 43.347zM465.478 80.544c2.125-8.973 3.283-18.208 3.283-27.629 0-78.202-50.394-139.309-194.976-139.309-102.842 0-177.114 65.101-177.114 143.302 0 76.64 92.128 140.442 194.963 139.334 24-0.256 46.368-4.115 66.669-10.688 55.827-38.835 95.878-60.768 107.174-105.011zM300.819 372.224c-69.037 2.067-134.637 77.229-146.554 167.859-11.917 90.669 34.368 160.045 103.386 157.99 69.011-2.074 134.637-74.816 146.56-165.459 11.904-90.656-34.387-162.458-103.392-160.39zM832 544v192h-64v-192h-192v-64h192v-192h64v192h192v64z" />
<glyph unicode="&#xe01d;" d="M575.872-224h-191.872v512h-128v176.448l128 0.058-0.211 103.949c0 143.955 39.040 231.546 208.602 231.546h141.178v-176.486h-88.23c-66.029 0-69.203-24.659-69.203-70.682l-0.262-88.326h158.688l-18.707-176.448-139.853-0.058-0.128-512z" />
<glyph unicode="&#xe01e;" d="M752.928 412.288l-248.544-248.576-248.512 248.576h497.056z" />
<glyph unicode="&#xe01f;" d="M816.928 444.288l-312.544-312.576-312.512 312.576h625.056z" />
<glyph unicode="&#xe020;" d="M159.002 642.253v-864.998l864.998-0.006v864.998l-864.998 0.006zM100.998 700.998h762.003v99.002h-863.002v-863.002h100.998z" />
<glyph unicode="&#xe021;" d="M159.002 642.253v-864.998l864.998-0.006v864.998l-864.998 0.006zM848 145.248h-192.499v-192h-128v192h-192.499v128h192.499v192.998h128v-192.998h192.499v-128zM100.998 700.998h762.003v99.002h-863.002v-863.002h100.998z" />
<glyph unicode="&#xe022;" d="M928-224h-832c-17.664 0-32 14.304-32 32v512c0 17.696 14.336 32 32 32h96v128c0 176.736 143.264 320 320 320s320-143.264 320-320v-128h96c17.696 0 32-14.304 32-32v-512c0-17.696-14.304-32-32-32zM704 496c0 97.216-85.984 176-192 176s-192-78.784-192-176v-144h384v144z" />
<glyph unicode="&#xe023;" d="M1024 96c0-35.328-28.672-64-64-64v-69.888c37.184-13.248 64-48.384 64-90.112 0-52.992-43.008-96-96-96-41.76 0-76.896 26.816-90.112 64h-69.888c0-35.328-28.672-64-64-64s-64 28.672-64 64h-64c0-35.328-28.672-64-64-64s-64 28.672-64 64h-64c0-35.328-28.672-64-64-64s-64 28.672-64 64h-69.888c-13.216-37.184-48.384-64-90.112-64-53.024 0-96 43.008-96 96 0 41.76 26.784 76.864 64 90.112v69.888c-35.328 0-64 28.672-64 64s28.672 64 64 64v64c-35.328 0-64 28.672-64 64s28.672 64 64 64v64c-35.328 0-64 28.672-64 64s28.672 64 64 64v69.888c-37.216 13.216-64 48.384-64 90.112 0 53.024 42.976 96 96 96 41.728 0 76.896-26.784 90.112-64h69.888c0 35.328 28.672 64 64 64s64-28.672 64-64h64c0 35.328 28.672 64 64 64s64-28.672 64-64h64c0 35.328 28.672 64 64 64s64-28.672 64-64h69.888c13.216 37.216 48.352 64 90.112 64 52.992 0 96-42.976 96-96 0-41.728-26.816-76.896-64-90.112v-69.888c35.328 0 64-28.672 64-64s-28.672-64-64-64v-64c35.328 0 64-28.672 64-64s-28.672-64-64-64v-64c35.328 0 64-28.672 64-64zM832 576c0 17.664-14.304 32-32 32h-576c-17.664 0-32-14.336-32-32v-576c0-17.696 14.336-32 32-32h576c17.696 0 32 14.304 32 32v576z" />
<glyph unicode="&#xe024;" d="M832-96c-106.016 0-192 71.616-192 160s85.984 160 192 160c22.56 0 43.872-3.84 64-9.824v297.824l-512-128v-480h-3.872c-17.792-73.024-95.264-128-188.128-128-106.016 0-192 71.616-192 160s85.984 160 192 160c22.56 0 43.872-3.84 64-9.824v553.824l640 160h128v-736c0-88.384-85.984-160-192-160z" />
<glyph unicode="&#xe025;" d="M752 224c0-141.376-114.624-256-256-256s-256 114.624-256 256c0 130.72 125.344 211.040 256 222.432v-158.432l320 224v32l-320 256v-161.344c-235.104-13.824-448-177.952-448-414.656 0-247.424 200.576-448 448-448s448 200.576 448 448h-192z" />
<glyph unicode="&#xe026;" d="M1024 224.992v128l-152.992 63.744c-4.256 12-8.736 23.616-14.24 35.008l61.76 153.76-90.528 90.496-152.384-62.752c-11.616 5.632-23.488 10.368-35.744 14.752l-64.864 152h-128l-63.264-151.488c-12.736-4.512-24.992-9.248-37.12-15.008l-152.128 61.12-90.496-90.496 62.016-150.752c-6.016-12.384-10.88-24.992-15.52-38.016l-150.496-64.352v-128l150.624-62.752c4.64-12.992 9.632-25.632 15.616-38.016l-60.864-151.744 90.496-90.496 151.136 62.24c12.128-5.76 24.512-10.368 37.248-14.752l64.736-151.488h128l63.36 152.256c12.128 4.512 24.128 9.248 35.616 14.752l153.504-61.504 90.496 90.496-63.008 152.736c5.376 11.488 9.76 23.136 14.016 35.008l153.024 65.248zM511.008 96c-105.984 0-192 86.016-192 192s86.016 192 192 192 192-86.016 192-192-86.016-192-192-192z" />
<glyph unicode="&#xe027;" d="M512 800c-282.752 0-512-229.248-512-512s229.248-512 512-512 512 229.248 512 512-229.248 512-512 512zM432.64 51.744l-235.584 235.616 90.496 90.496 145.056-145.12 307.744 307.744 90.496-90.496-398.208-398.24z" />
<glyph unicode="&#xe028;" d="M512 800c-282.752 0-512-229.248-512-512s229.248-512 512-512 512 229.248 512 512-229.248 512-512 512zM765.248 125.248l-90.496-90.496-162.752 162.752-162.752-162.752-90.496 90.496 162.752 162.752-162.752 162.752 90.496 90.496 162.752-162.752 162.752 162.752 90.496-90.496-162.752-162.752 162.752-162.752z" />
<glyph unicode="&#xe029;" d="M534.189 801.728c-281.715 0-423.75-201.242-423.75-369.043 0-101.6 38.605-191.987 121.414-225.696 13.581-5.517 25.747-0.192 29.69 14.797 2.733 10.368 9.21 36.525 12.109 47.398 3.968 14.829 2.426 20.013-8.531 32.928-23.878 28.070-39.142 64.403-39.142 115.853 0 149.293 112.115 282.931 291.949 282.931 159.219 0 246.701-96.934 246.701-226.387 0-170.336-75.661-314.086-187.968-314.086-62.042 0-108.474 51.091-93.594 113.779 17.824 74.835 52.339 155.61 52.339 209.632 0 48.352-26.048 88.678-79.962 88.678-63.411 0-114.349-65.35-114.349-152.909 0-55.75 18.912-93.478 18.912-93.478s-64.89-273.933-76.269-321.894c-22.656-95.552-3.405-212.678-1.779-224.512 0.954-7.002 10.003-8.666 14.086-3.36 5.85 7.603 81.37 100.486 107.046 193.312 7.264 26.285 41.709 162.387 41.709 162.387 20.595-39.149 80.826-73.651 144.838-73.651 190.618 0 319.923 173.139 319.923 404.877 0 175.258-148.966 338.445-375.373 338.445z" />
<glyph unicode="&#xe02b;" d="M966.022 799.251h-910.298c-31.194 0-56.474-25.28-56.474-56.474v-910.298c0-31.187 25.28-56.474 56.474-56.474h490.074v396.25h-133.35v154.426h133.35v113.888c0 132.166 80.723 204.134 198.624 204.134 56.474 0 105.011-4.205 119.155-6.086v-138.118l-81.773-0.038c-64.122 0-76.538-30.47-76.538-75.181v-98.598h152.922l-19.91-154.426h-133.011l0.006-396.256h260.749c31.187 0 56.474 25.286 56.474 56.474l0.006 910.304c0 31.194-25.293 56.474-56.48 56.474z" />
<glyph unicode="&#xe02c;" d="M1024 280.749c0 72.422-40.832 135.264-100.71 166.88 23.91 66.586 9.229 143.917-44.115 197.274-52.89 52.87-129.35 67.776-195.539 44.73-29.741 65.082-95.373 110.342-171.603 110.342-73.926 0-137.856-42.554-168.8-104.448-65.645 21.901-140.96 6.765-193.216-45.498-52.256-52.269-67.411-127.578-45.498-193.229-61.92-30.931-104.448-94.874-104.448-168.8 0-73.914 42.554-137.856 104.448-168.806-21.914-65.645-6.758-140.941 45.498-193.203 50.618-50.618 122.848-66.458 186.982-47.514 31.302-60.826 94.662-102.458 167.776-102.458 72.422 0 135.27 40.832 166.886 100.71 66.586-23.91 143.917-9.229 197.274 44.115 51.2 51.2 66.771 124.518 46.778 189.21 63.987 30.189 108.288 95.258 108.288 170.694zM439.482 18.547l-278.899 255.386 97.536 96.979 171.008-145.094 296.090 289.376 87.379-87.27-373.114-409.376z" />
<glyph unicode="&#xe02d;" d="M512 800c-282.752 0-512-229.248-512-512s229.248-512 512-512 512 229.248 512 512-229.248 512-512 512zM768 224h-192v-192h-128v192h-192v128h192v192h128v-192h192v-128z" />
<glyph unicode="&#xe02e;" d="M512 800c-282.752 0-512-229.248-512-512s229.248-512 512-512 512 229.248 512 512-229.248 512-512 512zM768 224h-512v128h512v-128z" />
<glyph unicode="&#xe02f;" d="M981.19 511.891c-88.806 12.768-183.379 22.016-282.074 27.219l164.883 164.89-64 64-224.557-224.557c-21.005 0.371-42.157 0.557-63.443 0.557v0l-256 256-64-64 194.195-194.195c-120.922-4.243-236.339-14.522-343.386-29.914-27.533-107.725-42.81-226.752-42.81-351.891s15.277-244.166 42.803-351.891c143.642-20.653 302.342-32.109 469.197-32.109 166.854 0 325.549 11.456 469.19 32.109 27.533 107.725 42.81 226.752 42.81 351.891s-15.277 244.166-42.81 351.891zM863.891-74.592c-107.731-13.766-226.752-21.408-351.891-21.408-125.139 0-244.166 7.642-351.891 21.408-20.646 71.814-32.109 151.162-32.109 234.592 0 83.43 11.456 162.778 32.109 234.598 107.725 13.766 226.752 21.402 351.891 21.402 125.133 0 244.16-7.635 351.885-21.402 20.659-71.821 32.115-151.168 32.115-234.598 0-83.43-11.456-162.778-32.109-234.592z" />
<glyph unicode="&#xe030;" d="M0 416h704v-128h-704v128zM0 608h704v-128h-704v128zM0 224h704v-128h-704v128zM0 32h704v-128h-704v128zM768 224l128-192 128 192h-256zM1024 288l-128 192-128-192h256z" />
<glyph unicode="&#xe031;" d="M384 672c0-70.692 57.308-128 128-128s128 57.308 128 128c0 70.692-57.308 128-128 128-70.692 0-128-57.308-128-128zM655.533 559.533c0 0 0 0 0 0 0-70.692 57.308-128 128-128 70.692 0 128 57.308 128 128 0 0 0 0 0 0 0 70.692-57.308 128-128 128-70.692 0-128-57.308-128-128zM832 288c0-35.346 28.654-64 64-64s64 28.654 64 64c0 35.346-28.654 64-64 64-35.346 0-64-28.654-64-64zM719.533 16.467c0 0 0 0 0 0 0-35.346 28.654-64 64-64 35.346 0 64 28.654 64 64 0 0 0 0 0 0 0 35.346-28.654 64-64 64-35.346 0-64-28.654-64-64zM448-96c0-35.346 28.654-64 64-64s64 28.654 64 64c0 35.346-28.654 64-64 64-35.346 0-64-28.654-64-64zM176.474 16.467c0 0 0 0 0 0 0-35.346 28.654-64 64-64 35.346 0 64 28.654 64 64 0 0 0 0 0 0 0 35.346-28.654 64-64 64-35.346 0-64-28.654-64-64zM144.474 559.533c0 0 0 0 0 0 0-53.019 42.981-96 96-96 53.019 0 96 42.981 96 96 0 0 0 0 0 0 0 53.019-42.981 96-96 96-53.019 0-96-42.981-96-96zM56 288c0-39.765 32.235-72 72-72s72 32.235 72 72c0 39.765-32.235 72-72 72-39.765 0-72-32.235-72-72z" />
<glyph unicode="&#xe032;" d="M960 544h-256v64c0 35.2-28.8 64-64 64h-256c-35.206 0-64-28.8-64-64v-64h-256c-35.2 0-64-28.8-64-64v-576c0-35.2 28.794-64 64-64h896c35.2 0 64 28.8 64 64v576c0 35.2-28.8 64-64 64zM384 607.885c0.032 0.038 0.077 0.083 0.115 0.115h255.77c0.045-0.032 0.083-0.077 0.115-0.115l0.006-63.885h-256.006v63.885zM960 288h-128v-96c0-17.6-14.4-32-32-32h-64c-17.606 0-32 14.4-32 32v96h-384v-96c0-17.6-14.4-32-32-32h-64c-17.6 0-32 14.4-32 32v96h-128v64h896v-64z" />
<glyph unicode="&#xe033;" d="M192 736v-768h768v768h-768zM896 32h-640v640h640v-640zM128-96v640l-64 64v-768h768l-64 64zM429.254 114.746l192 192 146.746-146.746v384h-384l146.746-146.746-192-192z" />
<glyph unicode="&#xe034;" d="M1024 207.789c0 236.768-191.949 428.71-428.71 428.71-236.762 0-428.704-191.949-428.704-428.71 0-236.762 191.942-428.71 428.704-428.71 236.762 0 428.71 191.942 428.71 428.71zM587.226-54.893c-116.717 0-222.483 27.405-299.859 71.84-26.797 65.958-52.045 167.494-36.55 299.053 7.206 44.794 30.803 58.56 44.352 65.958 76.582 41.869 179.238 67.475 292.064 67.45 114.342 0 218.195-26.304 295.11-69.133 44.96-26.522 52.211-65.984 53.76-82.739 10.682-117.325-10.931-209.498-35.181-272.256-78.33-49.312-189.83-80.173-313.696-80.173zM380.166 327.923c-22.586-7.475-43.936-16.23-63.309-26.554-10.285-92.013 2.79-165.702 19.405-217.779 21.254-9.69 44.608-17.798 69.261-24.48-21.37 71.072-33.414 172.576-25.357 268.813zM0 671.258c0-71.101 57.639-128.739 128.739-128.739 71.101 0 128.739 57.639 128.739 128.739 0 71.101-57.639 128.739-128.739 128.739-71.101 0-128.739-57.639-128.739-128.739z" />
<glyph unicode="&#xe035;" d="M768 800h256v-1024h-256zM384 544h256v-768h-256zM0 288h256v-512h-256z" />
<glyph unicode="&#xe036;" d="M187.731 355.731l188.262 188.269 188.275-188.269zM564.269 220.269l-188.275-188.269-188.262 188.269z" horiz-adv-x="749" />
<glyph unicode="&#xe037;" d="M989.12 528.179c26.208 88.41 38.803 185.197 21.76 258.323-82.611 17.459-165.478 7.245-257.933-22.15l236.173-236.173zM967.149 463.878l-277.92 277.92c-17.37-6.714-35.104-13.971-53.274-21.741-80.173-38.131-155.27-88.685-213.952-146.349l-167.974 25.030-220.435-177.722c-76.595-59.021-2.592-147.021 89.747-89.76l92.787 59.629 87.552-20.512c-21.741-137.222 153.85-312.813 291.072-291.059l20.512-87.571-59.629-92.794c-56.634-87.949 29.363-165.952 89.766-89.734l178.202 212.941-25.51 175.475c57.638 58.701 108.205 133.779 146.342 213.946 7.936 16.378 15.558 33.939 22.714 52.301zM695.277 296.486c-48.141-48.147-126.253-48.147-174.394 0-48.154 48.154-48.154 126.266 0 174.406 48.141 48.141 126.253 48.141 174.394 0 48.134-48.141 48.134-126.253 0-174.406zM256.269 31.891c-2.163 30.182-0.058 63.309 5.798 98.515-20.678 28.742-36.896 59.629-46.867 90.835-31.2-95.942-44.883-188.339-34.33-264.736 76.41-10.56 168.806 3.117 264.768 34.323-31.2 9.952-62.099 26.189-90.842 46.854-35.213-5.85-68.352-7.962-98.528-5.792z" />
<glyph unicode="&#xe038;" d="M512 736c-24.064 0-47.706-1.792-70.822-5.21-0.301 0.781-0.627 1.549-0.979 2.298 12.826 10.003 19.552 23.827 16.634 37.549-3.738 17.562-22.4 29.363-46.438 29.363-5.178 0-10.458-0.563-15.68-1.67-30.17-6.413-50.144-28.621-45.485-50.56 2.835-13.338 14.291-23.341 30.163-27.386-0.032-0.973-0.019-1.952 0.045-2.931-200.621-57.536-347.437-242.342-347.437-461.453 0-265.101 214.906-480 480-480 265.101 0 480 214.899 480 480 0 265.094-214.899 480-480 480zM364.883 751.091c-2.707 12.723 12.48 27.187 33.158 31.584 4.128 0.877 8.288 1.325 12.352 1.325 16.038 0 28.691-6.867 30.784-16.691 1.594-7.507-3.072-15.61-11.386-21.901-7.034 4.966-16.013 7.123-25.101 5.197-9.043-1.92-16.346-7.507-20.755-14.854-10.189 2.445-17.51 8.077-19.053 15.341zM769.389-1.389c-43.968-43.968-97.21-75.277-155.309-92.154l-42.394 68.768-10.746-79.955c-16.096-2.15-32.435-3.27-48.941-3.27-97.229 0-188.634 37.862-257.389 106.611-43.968 43.968-75.277 97.21-92.154 155.309l68.768 42.4-79.962 10.746c-2.144 16.090-3.264 32.429-3.264 48.934 0 97.229 37.862 188.634 106.611 257.389 43.968 43.968 97.21 75.277 155.309 92.154l42.394-68.768 10.746 79.962c16.096 2.144 32.435 3.264 48.941 3.264 97.229 0 188.634-37.862 257.389-106.611 43.968-43.968 75.277-97.21 92.154-155.309l-68.768-42.4 79.962-10.746c2.144-16.090 3.264-32.429 3.264-48.934 0-97.229-37.862-188.634-106.611-257.389zM760.902 504.902l-196.979-149.702c-14.643 7.661-30.874 12.064-47.418 12.723l-51.078 107.181-3.066-118.662c-13.286-6.534-25.101-15.661-34.874-26.95l-63.085 22.362 46.093-48.538c-6.336-13.517-9.869-28.032-10.432-42.822l-107.155-51.066 118.739-3.066c0.378-0.768 0.774-1.523 1.171-2.285l-149.702-196.979 196.979 149.702c14.643-7.654 30.874-12.058 47.418-12.723l51.078-107.181 3.066 118.662c13.286 6.541 25.107 15.661 34.88 26.95l63.091-22.368-46.093 48.538c6.336 13.517 9.869 28.032 10.438 42.822l107.155 51.066-118.739 3.072c-0.378 0.768-0.774 1.523-1.171 2.278l149.683 196.986zM512.102 355.469v0zM492.045 349.901c6.726 1.427 13.446 2.118 20.058 2.118 4.141 0 8.25-0.269 12.294-0.794l0.090-0.032-0.013 0.019c8.73-1.146 17.178-3.501 25.133-6.893l-71.546-54.374-54.381-71.552c-2.374 5.594-4.269 11.482-5.581 17.651-11.027 51.859 22.080 102.835 73.946 113.856zM562.118 174.118v0 0c-9.056-5.542-19.181-9.683-30.163-12.019-6.726-1.427-13.446-2.118-20.051-2.118-4.147 0-8.256 0.275-12.307 0.8l-0.077 0.032 0.013-0.019c-8.736 1.139-17.171 3.501-25.133 6.893l71.546 54.374 54.381 71.552c2.374-5.594 4.269-11.488 5.581-17.651 8.685-40.883-10.061-81.203-43.789-101.843z" />
<glyph unicode="&#xe039;" d="M510.048 800c-279.725 0-480.749-202.893-480.749-507.226 0-270.816 195.501-516.774 480.781-516.774 288.077 0 484.621 245.888 484.621 516.774 0 306.765-207.443 507.226-484.653 507.226zM688.358 301.459c-0.070-169.35-9.101-410.483-178.278-410.483v-0.032c-166.784 0-173.434 241.267-173.434 410.31 0 198.381 18.56 388.57 173.434 388.57 154.874-0.006 178.278-192.589 178.278-388.365z" />
<glyph unicode="&#xe03a;" d="M734.202 171.168h236.051c1.818 16.371 2.547 33.101 2.547 50.195 0 80.224-21.536 155.469-59.123 220.269 38.88 103.309 37.491 190.989-14.554 243.392-49.498 49.28-182.291 41.28-332.41-25.197-11.104 0.838-22.317 1.274-33.638 1.274-206.048 0-378.925-141.792-426.707-332.851 64.634 82.752 132.634 142.752 223.469 186.445-8.262-7.738-56.454-55.654-64.563-63.763-239.539-239.482-315.085-552.307-233.798-633.606 61.786-61.773 173.76-51.341 302.374 11.648 59.808-30.458 127.501-47.629 199.219-47.629 193.133 0 356.806 124.314 416.090 297.446h-237.869c-32.736-60.384-96.749-101.478-170.221-101.478-73.466 0-137.485 41.101-170.214 101.478-14.547 27.277-22.912 58.554-22.912 91.654v0.723h386.259zM348.301 287.194c5.459 97.107 86.202 174.586 184.768 174.586s179.315-77.472 184.768-174.586h-369.536zM896.966 636.192c33.523-33.882 32.685-96.211 4.013-174.022-49.139 74.906-120.518 133.939-204.794 167.642 90.106 38.637 163.405 43.757 200.781 6.381zM93.485-167.258c-42.784 42.797-29.882 132.621 25.229 240.832 34.31-96.269 101.158-177.088 187.334-229.152-95.43-43.315-173.536-50.675-212.563-11.68z" />
<glyph unicode="&#xe03b;" d="M1022.528 465.862l-11.859-76.077c0 0-16.954 140.858-37.734 193.517-31.846 80.685-46.016 80.038-46.106 79.923 21.331-54.202 17.459-83.322 17.459-83.322s-37.792 102.995-137.709 135.77c-110.688 36.282-170.573 26.362-177.491 24.486-1.050 0.006-2.067 0.013-3.027 0.013 0.819-0.064 1.613-0.147 2.426-0.211-0.032-0.019-0.090-0.045-0.083-0.051 0.448-0.55 122.304-21.299 143.917-50.995 0 0-51.763 0-103.27-14.842-2.33-0.666 189.523-23.962 228.749-215.674 0 0-21.030 43.878-47.040 51.328 17.107-52.038 12.717-150.778-3.578-199.853-2.099-6.31-4.243 27.283-36.326 41.747 10.278-73.645-0.614-190.458-51.706-222.63-3.981-2.502 32.032 115.309 7.245 69.76-142.707-218.803-311.405-100.973-387.251-49.107 38.867-8.461 112.653 1.318 145.312 25.613 0.045 0.032 0.077 0.058 0.115 0.083 35.469 24.25 56.474 41.965 75.334 37.773 18.874-4.211 31.437 14.726 16.781 31.533-14.675 16.838-50.317 39.981-98.522 27.366-34.003-8.902-76.134-46.522-140.448-8.435-49.363 29.248-54.010 53.549-54.451 70.374 1.216 5.965 2.752 11.533 4.576 16.621 5.683 15.872 22.912 20.659 32.493 24.435 16.256-2.79 30.259-7.859 44.966-15.405 0.192 4.896 0.25 11.392-0.019 18.758 1.408 2.803 0.538 11.251-1.722 21.581-1.299 10.31-3.418 20.973-6.752 30.694 0.013 0 0.019 0.013 0.032 0.013 0.058 0.019 0.109 0.038 0.154 0.070 0.077 0.045 0.147 0.115 0.211 0.192 0.013 0.019 0.032 0.032 0.045 0.051 0.083 0.122 0.154 0.275 0.198 0.467 1.018 4.621 12.019 13.523 25.715 23.098 12.269 8.582 26.701 17.696 38.067 24.749 10.061 6.246 17.722 10.88 19.347 12.096 0.621 0.467 1.357 1.011 2.163 1.638 0.147 0.115 0.301 0.23 0.454 0.352 0.096 0.077 0.192 0.147 0.288 0.224 5.408 4.307 13.485 12.448 15.181 29.581 0.006 0.045 0.013 0.083 0.013 0.122 0.051 0.506 0.090 1.011 0.128 1.536 0.026 0.365 0.051 0.723 0.070 1.094 0.013 0.282 0.032 0.563 0.045 0.858 0.032 0.672 0.051 1.363 0.058 2.067 0 0.038 0 0.077 0.006 0.115 0.019 1.658-0.006 3.386-0.102 5.203-0.051 1.011-0.128 1.933-0.301 2.765-0.006 0.045-0.019 0.090-0.026 0.134-0.019 0.083-0.038 0.166-0.058 0.243-0.038 0.147-0.077 0.294-0.122 0.429-0.006 0.019-0.013 0.032-0.019 0.045-0.051 0.16-0.115 0.314-0.173 0.467-0.006 0.006-0.006 0.013-0.006 0.019-1.754 4.109-8.32 5.658-35.443 6.118-0.026 0-0.051 0-0.077 0v0c-11.066 0.186-25.536 0.192-44.499 0.115-33.248-0.134-51.629 32.506-57.491 45.133 8.038 44.461 31.277 76.141 69.453 97.626 0.723 0.403 0.582 0.742-0.275 0.979 7.462 4.512-90.246 0.122-135.187-57.037-39.885 9.914-74.656 9.248-104.614 2.214-5.754 0.16-12.922 0.883-21.434 2.65-19.923 18.054-48.448 51.405-49.978 91.206 0 0-0.090-0.070-0.25-0.205-0.019 0.384-0.058 0.762-0.070 1.139 0 0-60.717-46.662-51.629-173.882-0.019-2.035-0.064-3.987-0.122-5.875-16.429-22.285-24.589-41.018-25.19-45.158-14.573-29.645-29.35-74.253-41.37-141.984 0 0 8.41 26.669 25.286 56.864-12.41-38.022-22.163-97.158-16.435-185.856 0 0 1.517 19.667 6.874 47.994 4.186-55.008 22.515-122.925 68.858-202.79 88.947-153.318 225.67-230.739 376.794-242.618 26.835-2.214 54.048-2.266 81.427-0.186 2.515 0.179 5.030 0.365 7.552 0.576 30.963 2.176 62.131 6.854 93.235 14.368 425.165 102.803 378.938 616.205 378.938 616.205z" />
<glyph unicode="&#xe03c;" d="M258.278 353.459l-146.534 253.798c93.818 117.466 238.234 192.742 400.256 192.742 187.43 0 351.309-100.736 440.531-251.002h-417.766c-7.507 0.653-15.098 0.998-22.765 0.998-121.875 0-224.576-83.642-253.722-196.538zM695.309 475.002h293.459c22.739-57.933 35.232-121.005 35.232-187.002 0-280.826-226.099-508.806-506.189-511.923l209.395 362.675c29.485 42.381 46.797 93.824 46.797 149.248 0 73.171-30.17 139.418-78.694 187.002zM326.003 288c0 102.56 83.437 185.997 185.997 185.997s186.003-83.437 186.003-185.997c0-102.56-83.443-186.003-186.003-186.003-102.56 0-185.997 83.443-185.997 186.003zM582.182 35.558l-146.579-253.882c-246.528 36.89-435.603 249.517-435.603 506.323 0 91.219 23.885 176.845 65.696 251.021l209.030-362.048c41.869-89.114 132.474-150.976 237.274-150.976 24.301 0 47.834 3.341 70.182 9.562z" />
<glyph unicode="&#xe03d;" d="M512 800c-282.752 0-512-229.248-512-512s229.248-512 512-512 512 229.248 512 512-229.248 512-512 512zM320 32v512l512.256-256-512.256-256z" />
<glyph unicode="&#xe03f;" d="M761.862-224c113.728 206.035 132.89 520.307-313.862 509.824v-253.824l-384 384 384 384v-248.371c534.963 13.939 594.573-472.218 313.862-775.629z" />
<glyph unicode="&#xe040;" d="M576 551.629v248.371l384-384-384-384v253.824c-446.752 10.483-427.59-303.789-313.862-509.824-280.71 303.411-221.101 789.568 313.862 775.629z" />
<glyph unicode="&#xe041;" d="M321.062 277.030c-89.344 0-155.981-42.176-155.981-42.176s26.931 124.058 172.64 124.058c-4.506 39.597-7.392 80.474-8.019 122.739-0.269 18.573-1.786 55.053 13.939 64.934 8.621 5.421 55.507-12.826 63.027-16.589 0.851-0.416 81.344-39.315 207.002-53.248 14.688 67.565 23.328 201.011 24.467 278.253 0 0-127.629-63.814-319.072-63.814-191.437 0-319.066 63.814-319.066 63.814 4.883-330.445 92.262-651.821 306.733-654.816 11.968-0.166 55.558 5.434 79.718 16.659-15.878 51.174-25.818 96.237-36.87 158.656-9.133 0.934-18.611 1.53-28.518 1.53zM91.072 490.291l197.741 34.688c0 0-11.891-75.494-59.341-84.173-71.168-13.005-138.4 49.485-138.4 49.485zM701.952 418.624c-191.443 0-319.072 63.814-319.072 63.814 4.883-330.438 118.368-653.581 319.072-657.574 236.173-4.698 314.189 327.13 319.066 657.574 0.006-0.006-127.622-63.814-319.066-63.814zM487.226 197.299c0 0 35.782 105.901 112.461 102.253 51.123-2.432 79.13-60.128 79.13-60.128l-191.59-42.125zM705.901-34.387c-130.739 0-183.034 135.923-183.034 135.923s73.21-52.243 183.034-52.243c109.824 0 183.034 52.243 183.034 52.243s-52.294-135.923-183.034-135.923zM736.838 238.298c0 0 25.811 56.429 75.206 59.91 74.093 5.216 111.040-96.429 111.040-96.429l-186.246 36.518z" />
<glyph unicode="&#xe043;" d="M512 800l-512-320h1024l-512 320zM800 416l32-64v-384h128v384l32 64h-192zM544 416l32-64v-384h128v384l32 64h-192zM288 416l32-64v-384h128v384l32 64h-192zM32 416l32-64v-384h128v384l32 64h-192zM32-96l-32-128h1024l-32 128h-960zM576 608c0-35.347-28.653-64-64-64s-64 28.653-64 64 28.653 64 64 64c35.347 0 64-28.653 64-64z" />
<glyph unicode="&#xe044;" d="M218.33 589.005h149.894l219.136-580.026h-155.597l-29.325 91.245-214.246-0.006-29.325-91.245-154.79 0.006 214.253 580.026zM367.411 207.75l-71.686 239.501h-1.626l-71.693-239.501h145.005zM1012.595 99.405c0-15.213 0.531-30.688 1.626-46.432 1.082-15.757 4.346-30.419 9.779-43.994h-117.306c-2.726 7.603-4.621 15.072-5.702 22.406-1.094 7.328-1.907 14.79-2.445 22.4h-1.632c-5.434-8.691-13.037-16.429-22.81-23.213-9.773-6.797-20.774-12.627-32.992-17.517-12.218-4.883-24.845-8.678-37.875-11.405-13.037-2.714-25.254-4.077-36.659-4.077-20.646 0-39.795 2.854-57.434 8.557-17.651 5.702-32.992 13.971-46.029 24.845-13.037 10.861-23.219 24.301-30.547 40.326-7.334 16.013-10.995 34.342-10.995 54.989 0 26.067 5.011 48.192 15.072 66.394 10.042 18.189 24.71 33.402 43.994 45.619 19.27 12.218 42.63 22.125 70.054 29.734 27.418 7.597 58.515 13.85 93.28 18.733l46.432 6.515v35.846c0 16.294-5.702 28.102-17.107 35.437-11.405 7.334-25.798 11.002-43.174 11.002-20.646 0-36.122-4.211-46.438-12.627-10.323-8.429-17.107-23.501-20.365-45.21h-122.195c1.082 30.957 8.275 55.52 21.587 73.722 13.299 18.195 29.050 31.898 47.245 41.139 18.195 9.229 37.331 15.072 57.434 17.517 20.083 2.445 37.472 3.667 52.134 3.667 29.325 0 55.93-1.907 79.834-5.702 23.891-3.808 44.115-10.592 60.691-20.365 16.557-9.773 29.459-22.682 38.694-38.694 9.229-16.026 13.85-36.25 13.85-60.691v-228.922zM890.4 219.968l-85.536-24.442c-15.757-4.352-29.875-10.464-42.362-18.33-12.499-7.878-18.739-20.506-18.739-37.882 0-17.389 5.965-29.875 17.92-37.472 11.942-7.616 25.792-11.405 41.549-11.405 24.973 0 45.747 8.275 62.323 24.845 16.557 16.557 24.845 41.408 24.845 74.541l-0.006 30.144z" />
<glyph unicode="&#xe045;" d="M972 606.323h-43.686l0.006 43.686c0 25.939-16.384 43.686-43.686 43.686v-0.045l-131.053 0.045c-87.373 0-162.963-17.024-240.269-87.373-77.299 70.349-152.896 87.373-240.269 87.373h-131.053c-27.302 0-43.686-17.747-43.686-43.686v-43.686h-43.68c-24.147 0-43.686-19.539-43.686-43.686v-611.59c0-24.147 19.539-43.686 43.686-43.686h393.165c0-24.147 19.539-43.686 43.686-43.686h43.686c24.147 0 43.686 19.539 43.686 43.686h393.165c24.147 0 43.686 19.539 43.686 43.686l-0.013 611.59c0 24.147-19.539 43.686-43.686 43.686zM54.624-5.267v567.904h43.686v-480.531c0-25.939 16.384-43.686 43.686-43.686h131.053c43.686 0 94.579-5.248 147.354-43.686h-365.779zM491.469-5.267c-77.299 70.349-131.053 87.373-218.426 87.373l-131.053-0.045v567.949c0 0 43.686 0 131.053 0 131.053 0 170.221-43.475 218.426-87.373v-567.904zM535.155-5.267v567.904c48.205 43.898 87.373 87.373 218.426 87.373 87.373 0 131.053 0 131.053 0v-567.949l-131.053 0.045c-87.373 0-141.126-17.018-218.426-87.373zM972-5.267h-365.773c52.774 38.438 103.667 43.686 147.354 43.686h131.053c27.302 0 43.686 17.747 43.686 43.686v480.531h43.686l-0.006-567.904z" />
<glyph unicode="&#xe046;" d="M751.642 262.195l-3.885-0.045v69.722l-0.070 3.347h-611.322l-0.070-3.347v-475.507c0-44.39 35.981-80.365 80.358-80.365h450.733c44.378 0 80.365 35.974 80.365 80.365v73.069l3.885-0.038c91.898 0 166.394 74.496 166.394 166.387 0.006 91.917-74.49 166.413-166.387 166.413zM751.642-13.907l-3.885 0.070v219.264l3.885 0.070c60.582 0 109.696-49.114 109.696-109.715 0-60.576-49.114-109.69-109.696-109.69zM246.355 546.912c41.805 7.379 69.722 47.238 62.342 89.043-3.309 18.803-15.206 37.344-34.048 50.547-28.666 20.070-46.278 35.366-64.966 68.435-6.259-37.472-17.574-57.869-37.651-86.541-13.203-18.842-18.029-40.333-14.714-59.142 7.373-41.798 47.238-69.702 89.037-62.342zM449.075 750.822l0.378 46.138-33.664 0.192-0.39-46.093c11.181-4.858 22.464-4.198 33.677-0.237zM431.814 724.557c-9.587 0-13.286 0.954-22.31 3.974-7.693-28.986-34.246-111.949-34.246-111.949s20.486-41.421 30.707-62.253c8.48 18.074 16.819 36.154 25.261 53.99 10.784-17.44 21.677-35.194 32.48-52.915 7.795 20.256 23.552 60.422 23.552 60.422s-20.966 71.29-32.794 110.925c-9.485-2.867-13.363-2.195-22.65-2.195zM331.546 384.806c-15.757 51.366-35.514 100.678-58.95 147.59l-45.92-8.096c-5.267-45.824-7.174-92.422-5.702-139.494h110.573zM487.162 384.806l0.045 152.582-18.739-34.662c0 0-32.237 43.2-33.843 45.83-0.979-2.099-29.261-44.646-29.261-44.646s-28.704 45.677-30.157 48.627l-0.045-167.738 112 0.006zM667.136 384.806l39.002 277.504-129.894 18.253-41.562-295.757z" />
<glyph unicode="&#xe047;" d="M865.728 264.147c-4.877-12.531-10.054-25.587-15.616-39.258-72.87-179.091-188.147-409.613-210.95-400.326-22.733 9.254 55.661 254.778 128.563 433.869 5.523 13.664 10.963 26.611 16.224 38.989l81.779-33.274zM793.459 320.723c42.49 87.642 73.632 145.779 94.419 178.138l44.090-17.933c-7.77-37.69-26.042-101.043-56.806-193.446l-81.702 33.242zM898.995 521.517c-12.141 23.642-14.464 52.768-5.101 72.032 19.718 40.544 91.296 53.683 110.598 89.619 36.051-67.885 20.973-151.072-63.77-178.637l-41.728 16.986zM732.058 468.896c-11.917 297.267-441.562 388.794-640.621 150.042-236.486-283.334 19.782-845.619 380.512-754.054 74.579 18.925 135.571 91.526 125.414 192.832-9.37 92.666-67.731 211.718 27.142 243.283 74.918 24.902 110.368 97.85 107.552 167.898zM60.198 372.083c-11.155 33.542 6.95 69.862 40.512 81.018 33.542 11.155 69.786-7.040 80.941-40.627 11.117-33.389-7.008-69.67-40.55-80.826-33.542-11.194-69.786 7.046-80.902 40.435zM168.87 146.125c-33.542-11.155-69.786 7.085-80.902 40.474-11.155 33.542 6.95 69.824 40.506 81.018 33.542 11.155 69.786-7.085 80.941-40.621 11.123-33.395-7.002-69.677-40.544-80.87zM221.869 490.675c-33.562-11.155-69.805 7.040-80.902 40.467-11.174 33.542 6.95 69.824 40.493 80.979 33.562 11.155 69.805-7.040 80.96-40.582 11.117-33.427-7.008-69.709-40.55-80.864zM350.784 669.267c33.542 11.155 69.786-7.040 80.941-40.621 11.117-33.389-7.008-69.67-40.544-80.826-33.542-11.194-69.786 7.046-80.902 40.435-11.162 33.542 6.944 69.862 40.506 81.011zM477.466-58.554c-34.931-32.896-92.269-28.666-128.013 9.363-35.654 37.958-36.243 95.373-1.299 128.301 34.989 32.781 92.307 28.666 128.019-9.408 35.635-37.946 36.32-95.437 1.293-128.256zM575.2 475.789c-33.542-11.155-69.786 7.046-80.902 40.435-11.155 33.542 6.97 69.862 40.506 81.018 33.542 11.155 69.786-7.040 80.947-40.621 11.11-33.395-7.014-69.677-40.55-80.832z" />
<glyph unicode="&#xe048;" d="M1025.498 0c0 288-256 224-256 448 0 18.56-1.786 34.419-5.050 47.93-16.832 113.018-92.154 203.718-189.773 231.36 0.864 3.949 1.318 8.032 1.318 12.211 0.006 33.274-28.794 60.499-63.994 60.499-35.2 0-64-27.226-64-60.499 0-4.179 0.454-8.262 1.318-12.211-109.472-30.995-190.912-141.299-193.254-273.44-0.038-1.92-0.064-3.866-0.064-5.843 0-224.006-256-160.006-256-448.006 0-76.224 170.592-139.994 398.97-156.083 21.523-40.403 64.058-67.917 113.030-67.917s91.507 27.514 113.030 67.923c228.378 16.083 398.97 79.853 398.97 156.077 0 0.23-0.026 0.454-0.026 0.685l1.523-0.685zM826.246-54.093c-54.227-14.47-118.157-24.877-186.771-30.65-5.702 65.414-60.582 116.742-127.475 116.742s-121.773-51.328-127.475-116.742c-68.608 5.773-132.538 16.179-186.771 30.65-74.63 19.91-110.31 42.189-123.366 54.093 13.056 11.904 48.736 34.182 123.366 54.093 86.771 23.155 198.374 35.904 314.246 35.904s227.475-12.755 314.246-35.904c74.63-19.917 110.31-42.189 123.366-54.093-13.056-11.904-48.736-34.182-123.366-54.093z" />
<glyph unicode="&#xe049;" d="M320 160v192h192l-256 256-256-256h192v-320h384l-128 128zM832 224v320h-384l128-128h128v-192h-192l256-256 256 256z" />
<glyph unicode="&#xe04a;" d="M100.998 700.998h762.003v99.002h-863.002v-863.002h100.998zM159.002 640.998v-864.998h864.998v864.998h-864.998zM519.738-5.037l-204.781 206.541 78.758 78.758 126.022-127.763 269.549 269.542 78.758-78.771-348.307-348.307z" />
<glyph unicode="&#xe04b;" d="M788.422-0.864l-167.181 178.79c0 0 113.101 360.25 334.95 267.558 176.755-76.563-32.557-389.613-167.77-446.349zM709.626-79.731l-171.981 153.958c0 0-216.883-145.267-102.074-253.21 114.81-107.936 231.443 9.53 274.054 99.251zM48.57 334.534l239.014 52.755c0 0 110.694 360.998-124.666 410.176-189.056 36.934-193.702-339.622-114.349-462.931zM68.87 224.915l228.922 29.555c0 0 96.57-242.515-59.174-266.502-155.75-23.981-185.395 138.867-169.747 236.947z" />
<glyph unicode="&#xe04c;" d="M513.67-225.51c29.658 0 55.322 17.389 67.77 42.195h-135.859c12.531-24.557 38.63-42.195 68.090-42.195zM616.736-98.15h-206.125c-7.328 0-13.254-6.534-13.254-14.592v-18.963c0-8.058 5.926-14.598 13.254-14.598h206.125c7.322 0 13.28 6.541 13.28 14.598v18.963c0 8.058-5.958 14.592-13.28 14.592zM514.035 620.845v0.013c-0.013 0-0.019 0-0.026 0-158.733 0-287.424-128.685-287.424-287.418 0-52.275 14.662-100.864 38.336-143.494 70.573-127.168 87.258-86.131 100.806-179.27 8.454-58.112 23.027-71.411 66.797-71.411l162.349-0.013c43.763 0 58.336 13.299 66.797 71.411 13.542 93.133 30.227 52.102 100.806 179.27 23.667 42.637 38.323 91.232 38.323 143.494-0.013 158.509-128.346 287.059-286.765 287.418zM538.387 187.789v-171.174h-49.766v170.797l-121.766 121.76 35.187 35.194 111.264-111.27 112.032 112.019 35.181-35.187-122.131-122.138zM537.76 708.205v78.976c0 7.322-6.534 13.254-14.592 13.254h-18.963c-8.058 0-14.592-5.933-14.592-13.254l-0.006-78.976c0-7.322 6.541-13.274 14.598-13.28h18.957c8.064 0 14.598 5.958 14.598 13.28zM161.062 198.605l-79.347-35.891c-6.669-3.027-9.37-11.418-6.042-18.765l7.821-17.267c3.328-7.341 11.424-10.842 18.093-7.821l79.347 35.898c6.669 3.027 9.389 11.437 6.067 18.771l-7.827 17.267c-3.315 7.341-11.443 10.835-18.112 7.808zM150.406 432.755l-88.723 19.91c-7.168 1.498-14.31-3.674-15.968-11.565l-3.891-18.554c-1.651-7.885 2.81-15.501 9.971-17.005l88.73-19.91c7.168-1.498 14.336 3.674 15.987 11.558l3.891 18.554c1.658 7.891-2.835 15.507-9.997 17.011zM285.51 632.090l-50.298 64.262c-4.8 5.53-13.619 5.734-19.706 0.461l-14.33-12.416c-6.086-5.28-7.149-14.042-2.355-19.571l50.31-64.269c4.794-5.536 13.638-5.747 19.725-0.48l14.33 12.416c6.086 5.286 7.117 14.061 2.323 19.597zM869.171 198.605l79.347-35.891c6.669-3.027 9.376-11.418 6.042-18.765l-7.821-17.267c-3.328-7.341-11.43-10.842-18.099-7.821l-79.347 35.898c-6.669 3.027-9.389 11.437-6.067 18.771l7.827 17.267c3.328 7.341 11.45 10.835 18.118 7.808zM879.827 432.755l78.144 19.91c7.174 1.498 14.31-3.674 15.968-11.565l3.891-18.554c1.651-7.885-2.81-15.501-9.971-17.005l-78.15-19.91c-7.168-1.498-14.336 3.674-15.994 11.558l-3.891 18.554c-1.651 7.891 2.842 15.507 10.003 17.011zM744.723 632.090l48.186 62.144c4.8 5.53 13.619 5.734 19.712 0.461l14.33-12.416c6.086-5.28 7.149-14.042 2.355-19.571l-48.192-62.15c-4.8-5.536-13.638-5.747-19.731-0.48l-14.33 12.416c-6.093 5.286-7.13 14.061-2.33 19.597z" />
<glyph unicode="&#xe04d;" d="M920.064 585.568v-651.629h-759.565v-103.942h863.501v755.571zM756.064 637.626h-647.629v-539.693h647.629v539.693zM864 745.568v0-755.571h-863.507v755.571h863.507zM702.093 151.904h-539.693v107.942l161.907 269.843 221.779-269.843 156.006 107.936v-215.878zM540.186 502.707c0-44.71 36.243-80.954 80.954-80.954 44.71 0 80.954 36.243 80.954 80.954 0 44.71-36.243 80.954-80.954 80.954-44.71 0-80.954-36.243-80.954-80.954z" />
<glyph unicode="&#xe600;" d="M1012.124 606.252h-1009.132v-636.506h1018.016v636.506h-8.884zM957.388 478.18l-250.368-181.356 250.37-197.424v-66.004h-19.080l-284.86 224.624-133.678-96.834-9.878-6.812-9.634 6.812-132.644 96.082-283.908-223.874h-17.092v67.572l247.426 195.106-247.426 179.226v67.302h29.162l414.232-300.058 414.244 300.058h33.134v-64.42z" />
<glyph unicode="&#xe601;" d="M828.396 396.91l-266.64-148.196 0.004 145.112-251.906-150.506-22.916 306.618-70.836-0.006-50.102-773.932h684.156l-21.76 620.91zM469.016-117.642h-167.068v82.102h167.068v-82.102zM469.016 31.68h-167.068v82.096h167.068v-82.096zM716.532-117.718h-167.066v82.108h167.066v-82.108zM716.532 28.94h-167.066v82.098h167.066v-82.098zM380.227 696.351c22.123 32.015 60.681 43.718 86.122 26.138 25.441-17.58 28.13-57.785 6.007-89.801-22.123-32.015-60.681-43.718-86.122-26.138-25.441 17.58-28.13 57.785-6.007 89.801zM310.799 637.209c-6.999-16.959-23.598-26.198-37.075-20.636-13.477 5.562-18.729 23.819-11.73 40.778 6.999 16.959 23.598 26.198 37.075 20.636 13.477-5.562 18.729-23.819 11.73-40.778zM829.342 647.568c-2.764-80.782-84.21-143.552-181.896-140.208-97.684 3.344-174.632 71.532-171.87 152.31 2.762 80.77 84.196 143.552 181.878 140.202 97.692-3.34 174.632-71.53 171.888-152.304z" />
<glyph unicode="&#xe602;" d="M432.524 288c0 77.86 30.188 148.66 79.476 201.372-53.822 57.56-130.426 93.552-215.446 93.552-162.882-0.002-294.922-132.044-294.922-294.924 0-139.008 96.178-255.534 225.616-286.71 22.23-5.356 45.432-8.21 69.306-8.21 85.020 0 161.624 35.99 215.446 93.55-32.43 34.68-56.578 77.192-69.306 124.396-6.618 24.54-10.17 50.34-10.17 76.974zM727.448 582.92c-85.022 0-161.624-35.992-215.448-93.55 49.29-52.712 79.476-123.51 79.476-201.37 0-26.634-3.552-52.432-10.172-76.974-12.728-47.206-36.876-89.716-69.304-124.396 53.822-57.56 130.426-93.55 215.448-93.55 23.874 0 47.076 2.856 69.304 8.21 129.438 31.176 225.618 147.7 225.618 286.71 0 162.878-132.044 294.92-294.922 294.92z" />
<glyph unicode="&#xe603;" d="M109.868 445.878v94.488h18.9v-75.59h37.654v-18.898h-56.554zM237.67 445.878l-2.43 14.166h-18.762l-2.696-14.166h-19.032l16.868 94.488h28.348l17.010-94.488h-19.306zM225.794 512.554l-6.074-33.602h12.148l-6.074 33.602zM109.868 402.686v21.618h147.108v-21.618h-147.108zM137.412 353.542v-27.54h41.104v-27.538h-41.104v-55.076h-27.544v137.7h82.614v-27.548h-55.070zM253.606 243.39l-3.542 20.658h-27.344l-3.934-20.658h-27.732l24.586 137.7h41.308l24.786-137.7h-28.128zM236.296 340.568l-8.852-48.982h17.704l-8.852 48.982zM362.036 244.552h-65.766v226.796h65.452c35.63 0 64.792-28.832 64.792-64.798 0-15.552-4.856-29.486-14.578-41.144 13.28-13.29 20.088-31.106 20.088-49.246-0.002-39.536-30.454-71.608-69.988-71.608zM361.72 425.996h-20.092v-39.534h20.092c11.334 0 19.436 9.082 19.436 20.088 0 11.016-9.072 19.446-19.436 19.446zM362.036 341.098h-20.408v-51.192h20.408c14.58 0 24.62 11.67 24.62 26.254-0.002 13.606-11.334 24.938-24.62 24.938zM537.968 244.552l-24.968 68.406c-1.29 0-3.236 0-4.54-0.316-4.53 0-10.044 0-14.588 0v-68.090h-45.396v226.968h56.744c43.774 0 79.118-35.66 79.118-79.444 0-23.992-11.022-46.688-29.504-62.25l31.128-85.274h-47.994zM505.218 426.126h-11.348v-68.090h11.348c18.808 0 33.728 14.91 33.728 34.040 0.002 18.814-14.918 34.050-33.728 34.050zM605.954 243.196v181.026h36.21v-181.026h-36.21zM750.116 207.892l-30.67 30.668v0.254c0 0-1.028-0.254-1.542-0.254-29.896 0-54.12 24.48-54.12 54.372v81.952c0 29.892 24.222 54.108 54.12 54.108 29.63 0 53.86-24.216 53.86-54.108v-81.952c0-15.46-6.188-29.636-16.752-39.166l20.612-20.374-25.508-25.5zM735.69 374.884c0 9.792-7.996 18.040-17.786 18.040-10.054 0-18.042-8.246-18.042-18.040v-81.952c0-10.048 7.986-18.040 18.042-18.040 9.79 0 17.786 7.99 17.786 18.040v81.952zM834.764 239.894c-22.816 0-41.316 18.69-41.316 41.512v99.734h27.546v-99.734c0-7.676 6.1-13.77 13.77-13.77 7.472 0 13.574 6.094 13.574 13.77v99.734h27.538v-99.734c0-22.822-18.49-41.512-41.112-41.512zM897.496 243.442v137.7h82.624v-27.538h-55.080v-27.538h41.114v-27.548h-41.114v-27.536h55.082v-27.54h-82.626zM83.15 183.992v-3.536h-27.558v3.536c0 7.492-6.104 13.78-13.582 13.78-7.678 0-13.786-6.288-13.786-13.78v-62.006c0-7.672 6.106-13.79 13.786-13.79 7.476 0 13.582 6.118 13.582 13.79v3.344h27.558v-3.344c0-22.84-18.502-41.542-41.138-41.542-22.838 0-41.348 18.702-41.348 41.542v62.006c0 22.648 18.508 41.35 41.348 41.35 22.636 0 41.138-18.702 41.138-41.35zM143.464 80.446c-22.838 0-41.346 18.702-41.346 41.542v99.808h27.562v-99.808c0-7.672 6.1-13.79 13.784-13.79 7.474 0 13.58 6.118 13.58 13.79v99.808h27.558v-99.808c0.002-22.842-18.502-41.542-41.138-41.542zM203.57 83.982v137.812h27.562v-110.244h54.928v-27.568h-82.49zM332.848 194.236v-110.254h-27.366v110.254h-27.558v27.558h82.492v-27.558h-27.568zM433.8 36.070c-30 0-54.322 24.574-54.322 54.576v131.148h36.216v-131.148c0-10.088 8.022-18.098 18.106-18.098 9.832 0 17.852 8.010 17.852 18.098v131.148h36.216v-131.148c0-30.002-24.32-54.576-54.068-54.576zM578.226 40.728l-19.916 54.578c-1.038 0-2.588 0-3.622-0.268-3.618 0-8.016 0-11.634 0v-54.31h-36.22v181.066h45.272c34.916 0 63.118-28.458 63.118-63.372 0-19.15-8.792-37.252-23.542-49.666l24.836-68.030h-38.292zM552.106 185.582h-9.050v-54.32h9.050c14.99 0 26.9 11.894 26.9 27.162 0 15-11.91 27.158-26.9 27.158zM634.864 84.228v137.566h82.536v-27.508h-55.022v-27.518h41.068v-27.518h-41.068v-27.518h55.022v-27.506h-82.536zM837.728 84.136v137.658h27.528v-110.13h54.874v-27.528h-82.402zM736.366 84.136v104.248h27.534v-76.72h54.866v-27.528h-82.4zM939.090 84.136v137.658h82.598v-27.528h-55.060v-27.54h41.098v-27.528h-41.098v-27.538h55.060v-27.528h-82.598z" />
<glyph unicode="&#xe604;" d="M0.096 459.166v299.45h59.914v-239.592h119.354v-59.856h-179.268zM405.158 459.166l-7.7 44.9h-59.458l-8.554-44.9h-60.326l53.468 299.45h89.854l53.894-299.45h-61.178zM367.514 670.472l-19.248-106.494h38.51l-19.262 106.494zM0.096 322.26v68.524h466.242v-68.524h-466.242zM87.384 166.536v-87.288h130.296v-87.288h-130.296v-174.576h-87.288v436.438h261.85v-87.288h-174.562zM455.658-182.616l-11.218 65.488h-86.652l-12.474-65.488h-87.908l77.932 436.438h130.93l78.554-436.438h-89.164zM400.796 125.388l-28.052-155.258h56.12l-28.068 155.258zM799.318-178.918h-208.436v718.804h207.44c112.926 0 205.346-91.372 205.346-205.372 0-49.288-15.398-93.442-46.198-130.42 42.086-42.084 63.664-98.574 63.664-156.058 0-125.316-96.53-226.954-221.816-226.954zM798.322 396.136h-63.692v-125.286h63.692c35.92 0 61.596 28.754 61.596 63.666 0 34.908-28.756 61.62-61.596 61.62zM799.318 127.072h-64.688v-162.24h64.688c46.208 0 78.042 36.98 78.042 83.204 0 43.106-35.932 79.036-78.042 79.036z" />
<glyph unicode="&#xe605;" d="M585.574 587.981c-21.402-20.89-230.502-240.435-230.502-240.435-11.418-11.162-17.101-25.754-17.101-40.346s5.683-29.184 17.101-40.346c0 0 209.101-219.546 230.502-240.384 21.402-20.89 59.904-22.323 82.739 0 22.784 22.272 24.576 53.35-0.051 80.64l-191.846 200.090 191.846 200.090c24.627 27.341 22.835 58.419 0.051 80.691-22.886 22.272-61.389 20.89-82.739 0z" />
<glyph unicode="&#xe606;" d="M792.73 380.774c-20.838-21.402-240.384-230.554-240.384-230.554-11.162-11.418-25.754-17.101-40.346-17.101-14.643 0-29.235 5.683-40.346 17.101 0 0-219.546 209.152-240.435 230.554-20.838 21.402-22.272 59.853 0 82.739 22.323 22.835 53.402 24.627 80.691 0l200.090-191.898 200.038 191.846c27.341 24.627 58.47 22.835 80.691 0 22.323-22.835 20.941-61.338 0-82.688z" />
<glyph unicode="&#xe607;" d="M792.73 233.626c-20.838 21.402-240.384 230.502-240.384 230.502-11.162 11.418-25.754 17.152-40.346 17.152-14.643 0-29.235-5.734-40.346-17.152 0 0-219.546-209.101-240.435-230.502-20.838-21.402-22.272-59.904 0-82.739 22.323-22.784 53.402-24.627 80.691 0l200.090 191.846 200.038-191.846c27.341-24.627 58.47-22.784 80.691 0 22.323 22.886 20.941 61.389 0 82.739z" />
<glyph unicode="&#xe608;" d="M438.426 587.981c21.402-20.89 230.502-240.435 230.502-240.435 11.469-11.162 17.152-25.754 17.152-40.346s-5.683-29.184-17.152-40.346c0 0-209.101-219.546-230.502-240.384-21.402-20.89-59.853-22.323-82.739 0-22.835 22.272-24.627 53.35 0 80.64l191.898 200.090-191.846 200.090c-24.627 27.341-22.835 58.419 0 80.691 22.835 22.272 61.338 20.89 82.688 0z" />
<glyph unicode="&#xe609;" d="M634.829 132.198c13.722-13.875 13.722-36.301 0-50.125-13.722-13.875-35.891-13.875-49.613 0l-196.096 200.038c-13.722 13.875-13.722 36.301 0 50.125l196.096 200.090c13.722 13.875 35.891 13.875 49.613 0s13.722-36.25 0-50.125l-160.768-175.002 160.768-175.002z" />
<glyph unicode="&#xe60a;" d="M687.002 430.029c13.875 13.722 36.301 13.722 50.125 0 13.875-13.722 13.875-35.891 0-49.613l-200.038-196.096c-13.875-13.722-36.301-13.722-50.125 0l-200.090 196.096c-13.824 13.722-13.824 35.891 0 49.613 13.875 13.722 36.25 13.722 50.125 0l175.002-160.768 175.002 160.768z" />
<glyph unicode="&#xe60b;" d="M336.947 184.371c-13.875-13.722-36.25-13.722-50.125 0-13.824 13.722-13.875 35.891 0 49.664l200.090 195.994c13.875 13.722 36.301 13.722 50.125 0l200.090-196.045c13.875-13.773 13.875-35.942 0-49.664s-36.25-13.722-50.125 0l-175.053 160.819-175.002-160.768z" />
<glyph unicode="&#xe60c;" d="M389.171 132.198c-13.722-13.875-13.722-36.301 0-50.125 13.67-13.875 35.891-13.875 49.613 0l196.096 200.038c13.722 13.875 13.722 36.301 0 50.125l-196.096 200.090c-13.722 13.875-35.891 13.875-49.613 0s-13.722-36.25-0.051-50.074l160.819-175.053-160.768-175.002z" />
<glyph unicode="&#xe60d;" d="M737.229-72.602c13.722-13.875 13.722-36.25 0-50.125s-35.891-13.875-49.613 0l-400.896 404.838c-13.722 13.875-13.722 36.301 0 50.125l400.896 404.89c13.722 13.875 35.891 13.875 49.613 0s13.722-36.25 0-50.125l-365.568-379.802 365.568-379.802z" />
<glyph unicode="&#xe60e;" d="M132.198 532.429c-13.875 13.722-36.301 13.722-50.125 0-13.824-13.67-13.824-35.891 0-49.613l404.89-400.896c13.875-13.722 36.25-13.722 50.125 0l404.89 400.896c13.824 13.722 13.875 35.891 0 49.613s-36.352 13.722-50.125 0.051l-379.853-365.619-379.802 365.568z" />
<glyph unicode="&#xe60f;" d="M891.802 81.971c13.875-13.722 36.301-13.722 50.125 0 13.875 13.722 13.875 35.891 0 49.613l-404.89 400.896c-13.824 13.722-36.25 13.722-50.074 0l-404.89-400.896c-13.824-13.722-13.875-35.891 0-49.613s36.25-13.722 50.125 0l379.802 365.619 379.802-365.619z" />
<glyph unicode="&#xe610;" d="M286.704-72.602c-13.722-13.875-13.722-36.25 0-50.125s35.891-13.875 49.613 0l400.896 404.838c13.722 13.875 13.722 36.301 0 50.125l-400.896 404.89c-13.722 13.875-35.891 13.875-49.613 0s-13.722-36.25 0-50.125l365.568-379.802-365.568-379.802z" />
<glyph unicode="&#xe611;" d="M633.702 79.462c-127.539 45.978-168.294 84.787-168.294 167.885 0 49.869 38.963 33.587 56.064 124.928 7.117 37.888 41.523 0.614 48.026 87.091 0 34.458-18.739 43.059-18.739 43.059s9.574 51.046 13.261 90.266c4.608 48.947-28.57 175.309-205.619 175.309s-210.227-126.362-205.619-175.309c3.738-39.27 13.312-90.266 13.312-90.266s-18.79-8.55-18.79-43.059c6.605-86.477 41.011-49.203 48.026-87.091 17.152-91.341 56.115-75.059 56.115-124.928 0-83.098-40.806-121.907-168.346-167.885-15.36-5.478-51.968-14.080-83.098-27.546v-205.517h819.2c0 0 0 75.725 0 107.776s-57.498 79.155-185.498 125.286zM870.4 358.4v153.6h-102.4v-153.6h-153.6v-102.4h153.6v-153.6h102.4v153.6h153.6v102.4h-153.6z" />
<glyph unicode="&#xe612;" d="M1024-143.36c0 0-1.997 193.894-13.875 213.965-17.664 29.952-58.675 50.483-134.861 82.33-75.93 31.744-100.25 58.573-100.25 115.866 0 34.458 23.194 23.194 33.382 86.221 4.198 26.163 24.678 0.461 28.621 60.109 0 23.808-11.162 29.747-11.162 29.747s5.632 35.226 7.885 62.31c2.765 33.792-17.050 120.986-122.47 120.986s-125.133-87.245-122.419-120.986c2.202-27.085 7.834-62.31 7.834-62.31s-11.162-5.939-11.162-29.747c3.942-59.699 24.422-33.997 28.672-60.109 10.138-63.027 33.331-51.763 33.331-86.221 0-38.963-11.264-63.846-42.342-85.709 165.888-83.046 188.16-99.994 188.16-174.234v-152.218h230.656zM523.469 124.16c-101.325 42.291-133.632 78.029-133.632 154.47 0 45.875 30.925 30.925 44.493 114.995 5.581 34.867 32.973 0.563 38.144 80.128 0 31.744-14.899 39.629-14.899 39.629s7.578 46.95 10.547 83.098c3.686 44.954-22.733 161.28-163.277 161.28-140.544 0-166.912-116.275-163.226-161.28 2.97-36.147 10.496-83.098 10.496-83.098s-14.848-7.885-14.848-39.629c5.274-79.616 32.563-45.312 38.195-80.128 13.568-84.070 44.493-69.069 44.493-114.995 0-76.442-32.41-112.179-133.632-154.47-30.874-12.902-86.323-32.922-86.323-80.947v-186.573h711.373c0 0 0 110.336 0 139.827 0 43.878-86.374 85.197-187.904 127.693z" />
<glyph unicode="&#xe613;" d="M758.784 79.462c-126.208 45.978-166.554 84.787-166.554 167.885 0 49.869 38.554 33.587 55.45 124.928 7.014 37.888 41.062 0.614 47.616 87.091 0 34.458-18.586 43.059-18.586 43.059s9.472 51.046 13.158 90.266c4.506 48.947-28.262 175.309-203.469 175.309-175.155 0-208.026-126.362-203.418-175.309 3.686-39.219 13.158-90.266 13.158-90.266s-18.637-8.55-18.637-43.059c6.502-86.477 40.55-49.203 47.565-87.091 16.947-91.341 55.501-75.059 55.501-124.928 0-83.098-40.346-121.907-166.554-167.885-126.669-46.080-208.896-93.133-208.896-125.235 0-32.051 0-107.776 0-107.776h962.56c0 0 0 75.725 0 107.776s-82.278 79.104-208.896 125.235z" />
<glyph unicode="&#xe614;" d="M217.805-192.614c15.667 51.251 39.424 123.443 71.219 227.891 138.547 22.374 195.891-17.869 283.904 142.541-71.424-22.323-157.542 41.421-152.883 69.018 4.608 27.648 200.346-19.917 328.448 165.786-161.485-36.301-213.197 43.674-192.358 55.757 48.077 27.904 190.822 11.571 266.906 87.194 39.219 38.912 57.549 133.581 41.626 167.373-19.2 40.755-136.038 101.581-200.448 95.898-64.41-5.734-165.427-250.317-195.379-248.371s-35.942 109.517 16.333 209.562c-55.142-24.883-156.16-102.349-187.853-168.55-59.034-123.187 5.53-405.658-15.155-415.744-20.736-10.035-90.419 129.69-111.206 193.024-28.416-97.075-29.082-194.355 53.965-323.584-31.334-84.787-48.435-182.374-51.046-231.987-1.229-39.731 37.018-48.23 43.93-25.805z" />
<glyph unicode="&#xe615;" d="M847.923 643.174c-73.83 73.882-129.28 62.822-129.28 62.822l-554.291-554.291-51.712-243.866 243.866 51.712 554.24 554.24c0 0 11.11 55.45-62.822 129.382zM341.965-11.11l-83.098-17.92c-8.038 15.002-17.715 30.003-35.379 47.718-17.664 17.664-32.717 27.29-47.718 35.328l17.971 83.149 24.013 24.013c0 0 45.261-0.922 96.307-51.968 51.098-51.098 52.019-96.358 52.019-96.358l-24.115-23.962z" />
<glyph unicode="&#xe616;" d="M435.2 768h-46.029c-11.315 0-20.531-9.216-20.531-20.48v-194.56h-181.043c-8.448 0-18.944-1.946-28.979-5.018-10.138-3.123-19.814-7.424-26.726-12.134l-121.6-83.456c-6.861-4.71-10.291-10.906-10.291-17.152s3.43-12.442 10.291-17.152l121.6-83.456c6.912-4.71 16.589-9.011 26.726-12.134 10.035-3.072 20.531-5.018 28.979-5.018h181.043v-450.56c0-11.315 9.216-20.48 20.48-20.48h46.080c11.315 0 20.48 9.216 20.48 20.48v880.64c0 11.264-9.165 20.48-20.48 20.48zM1013.709 554.701l-121.6 83.456c-6.861 4.71-16.538 9.011-26.675 12.134-10.086 3.123-20.582 5.069-29.030 5.069h-350.003l41.011-235.52h308.992c8.448 0 18.944 1.946 29.030 5.018s19.814 7.424 26.675 12.083l121.6 83.456c6.912 4.762 10.291 10.957 10.291 17.203s-3.379 12.442-10.291 17.101z" />
<glyph unicode="&#xe617;" d="M750.080 383.334c-116.736 251.238-177.408 346.675-368.179 342.682-67.942-1.382-51.61 49.203-103.424 30.003-51.763-19.149-7.322-47.258-60.314-90.726-148.582-121.958-134.912-234.803-65.997-503.808 29.082-113.254-69.99-118.835-30.822-228.659 28.621-80.026 239.565-113.613 462.131-30.976 222.566 82.534 363.008 246.426 334.387 326.554-39.168 109.773-118.579 49.152-167.782 154.931zM559.309-30.515c-198.707-73.728-362.086-30.362-368.998-11.11-11.878 33.229 64.154 144.179 291.379 228.506 227.226 84.326 354.048 53.043 367.309 15.923 7.834-21.914-90.88-159.539-289.69-233.318zM495.462 148.378c-103.936-38.554-176.128-82.637-222.874-122.368 32.922-29.901 94.515-37.171 155.955-14.387 78.182 29.030 126.208 95.642 107.213 148.736-0.205 0.666-0.563 1.229-0.819 1.843-12.8-4.147-25.958-8.755-39.475-13.824z" />
<glyph unicode="&#xe618;" d="M852.378 555.878l-460.698 237.517c-63.13 33.229-187.546-30.976-223.283-87.501-15.923-25.293-14.797-43.52-14.797-53.862l5.683-536.32c0.358-11.418 14.746-26.726 26.982-34.304 25.549-15.667 412.672-257.28 423.578-264.141 5.888-3.686 12.902-5.376 19.763-5.376 5.837 0 11.725 1.28 17.050 3.942 11.674 5.734 18.944 16.794 18.944 28.928v563.251c0 11.725-6.861 22.528-18.022 28.416l-418.714 233.779c4.71 9.216 23.347 28.672 57.6 46.592 36.096 18.944 63.078 11.776 69.274 9.37 0 0 401.92-215.091 414.208-221.491 12.237-6.4 12.493-7.373 12.493-18.278 0-10.957 0-534.528 0-534.528 0-26.675 27.034-37.581 46.95-37.581 19.814 0 41.011 19.456 41.011 37.581v575.59c0 11.725-6.912 22.579-18.022 28.416z" />
<glyph unicode="&#xe619;" d="M512 200.755c122.368 0 224.819 41.574 231.014 95.898-18.176 51.046-38.042 106.701-57.549 161.434-13.517-39.014-88.32-66.56-173.466-66.56s-159.898 27.494-173.517 66.509c-19.507-54.733-39.27-110.336-57.498-161.434 6.195-54.272 108.595-95.846 231.014-95.846zM512 544.051c57.498 0 110.95 17.818 126.618 45.466-21.555 60.57-40.090 112.486-51.814 145.254-7.731 21.862-43.008 33.229-74.803 33.229s-67.072-11.366-74.803-33.178c-11.725-32.768-30.208-84.736-51.814-145.254 15.667-27.699 69.12-45.517 126.618-45.517zM961.536 150.221l-192.256 77.466 22.17-61.798c-1.126-65.434-128.256-117.658-279.45-117.658s-278.323 52.224-279.398 117.658l22.118 61.798-192.256-77.466c-53.914-21.76-56.166-61.952-5.069-89.344l361.574-193.894c51.149-27.392 134.861-27.392 186.010 0l361.574 193.894c51.2 27.392 48.896 67.584-5.018 89.344z" />
</font>
</defs>
</svg>
